<svg width="38" height="39" viewBox="0 0 38 39" fill="none" xmlns="http://www.w3.org/2000/svg">
<path fill-rule="evenodd" clip-rule="evenodd" d="M25.512 5.37515C22.3604 3.97089 18.8394 3.62301 15.4739 4.38338C12.1085 5.14376 9.07897 6.97166 6.83725 9.59447C4.59553 12.2173 3.2617 15.4945 3.03469 18.9373C2.80767 22.3801 3.69963 25.804 5.57754 28.6985C7.45545 31.5929 10.2187 33.8028 13.4552 34.9985C16.6916 36.1942 20.2279 36.3117 23.5366 35.3334C26.8453 34.3551 29.7491 32.3335 31.8149 29.5701C33.8808 26.8066 34.998 23.4494 35 19.9991V18.39C35 17.5616 35.6716 16.89 36.5 16.89C37.3284 16.89 38 17.5616 38 18.39V20C37.9977 24.0972 36.671 28.0847 34.2177 31.3663C31.7645 34.6479 28.3162 37.0486 24.3872 38.2103C20.4581 39.372 16.2588 39.2325 12.4155 37.8126C8.5722 36.3927 5.29084 33.7685 3.06083 30.3313C0.830806 26.8941 -0.228397 22.8282 0.0411859 18.7399C0.310769 14.6515 1.89469 10.7599 4.55673 7.6453C7.21877 4.53072 10.8163 2.36009 14.8128 1.45714C18.8092 0.554194 22.9905 0.967306 26.733 2.63487C27.4897 2.97204 27.8298 3.8588 27.4927 4.61551C27.1555 5.37222 26.2687 5.71232 25.512 5.37515ZM37.5602 4.93883C38.1463 5.52432 38.1467 6.47407 37.5612 7.06015L20.0612 24.5776C19.78 24.8592 19.3984 25.0174 19.0004 25.0175C18.6025 25.0176 18.2208 24.8596 17.9394 24.5782L12.6894 19.3282C12.1036 18.7424 12.1036 17.7926 12.6894 17.2069C13.2752 16.6211 14.2249 16.6211 14.8107 17.2069L18.9995 21.3957L35.4389 4.93989C36.0244 4.35381 36.9741 4.35333 37.5602 4.93883Z" fill="url(#paint0_linear_15_221)"/>
<defs>
<linearGradient id="paint0_linear_15_221" x1="38" y1="0.98999" x2="3.8147e-05" y2="38.99" gradientUnits="userSpaceOnUse">
<stop stop-color="#40C6FF"/>
<stop offset="0.505208" stop-color="#4086F1"/>
<stop offset="1" stop-color="#8458FF"/>
</linearGradient>
</defs>
</svg>
