<svg width="139" height="16" viewBox="0 0 139 16" fill="none" xmlns="http://www.w3.org/2000/svg">
<path d="M22.9325 13H29.1186V11.5643H24.6452V8.98366H28.7631V7.54794H24.6452V4.98118H29.0817V3.54545H22.9325V13ZM38.9217 6.73544C38.6309 4.63494 37.0151 3.41619 34.9192 3.41619C32.4494 3.41619 30.589 5.21662 30.589 8.27273C30.589 11.3242 32.4263 13.1293 34.9192 13.1293C37.1674 13.1293 38.6586 11.6751 38.9217 9.87003L37.1951 9.8608C36.9782 10.9688 36.0733 11.592 34.9423 11.592C33.4096 11.592 32.3109 10.4425 32.3109 8.27273C32.3109 6.13991 33.4004 4.95348 34.9469 4.95348C36.0964 4.95348 36.9966 5.6044 37.1951 6.73544H38.9217ZM40.0747 4.98118H42.9969V13H44.6958V4.98118H47.618V3.54545H40.0747V4.98118ZM50.808 7.19709V3.54545H49.0906V13H52.6315C54.8058 13 56.1031 11.7951 56.1031 10.0547C56.1031 8.31889 54.8058 7.19709 52.6315 7.19709H50.808ZM50.808 8.59126H52.6315C53.7764 8.59126 54.4088 9.23757 54.4088 10.0362C54.4088 10.8672 53.7764 11.5966 52.6315 11.5966H50.808V8.59126ZM60.9931 13H64.8201C66.9853 13 68.0471 11.8967 68.0471 10.424C68.0471 8.9929 67.0314 8.1527 66.025 8.10192V8.00959C66.9483 7.79261 67.6777 7.14631 67.6777 5.9968C67.6777 4.58878 66.6621 3.54545 64.6124 3.54545H60.9931V13ZM62.7058 11.5689V8.79901H64.5939C65.6511 8.79901 66.3066 9.44531 66.3066 10.2901C66.3066 11.0426 65.7896 11.5689 64.5478 11.5689H62.7058ZM62.7058 7.56641V4.9581H64.437C65.4434 4.9581 65.965 5.48899 65.965 6.21839C65.965 7.04936 65.291 7.56641 64.4 7.56641H62.7058ZM72.7616 13H74.4743V8.98366H78.8554V13H80.5727V3.54545H78.8554V7.54794H74.4743V3.54545H72.7616V13ZM83.6496 13L84.4298 10.6687H87.9845L88.7693 13H90.5974L87.2643 3.54545H85.1499L81.8215 13H83.6496ZM84.8914 9.29297L86.1702 5.48438H86.2441L87.5228 9.29297H84.8914ZM91.2287 13H91.6903C93.9016 13 94.5156 11.5089 94.6495 8.40199L94.7972 4.95348H97.7195V13H99.3952V3.54545H93.1999L93.043 7.87109C92.9414 10.5533 92.5813 11.5043 91.4964 11.5643L91.2287 11.5781V13ZM101.258 3.54545V13H102.781L107.236 6.56001H107.315V13H109.028V3.54545H107.495L103.045 9.99006H102.961V3.54545H101.258ZM111.18 3.54545V6.62926C111.18 8.76207 112.551 9.64844 114.725 9.64844C115.413 9.64844 116.235 9.55611 116.854 9.40376V13H118.539V3.54545H116.854V8.00497C116.226 8.14808 115.358 8.2358 114.725 8.2358C113.484 8.2358 112.856 7.82493 112.856 6.62926V3.54545H111.18ZM120.618 3.54545V13H122.142L126.597 6.56001H126.675V13H128.388V3.54545H126.855L122.405 9.99006H122.322V3.54545H120.618ZM130.254 3.54545V13H131.778L136.232 6.56001H136.311V13H138.024V3.54545H136.491L132.041 9.99006H131.958V3.54545H130.254Z" fill="#2DB152"/>
<g clip-path="url(#clip0_105_16631)">
<path d="M14.6663 7.38674V8.00007C14.6655 9.43769 14.2 10.8365 13.3392 11.988C12.4785 13.1394 11.2685 13.9817 9.88991 14.3893C8.51129 14.797 7.03785 14.748 5.68932 14.2498C4.3408 13.7516 3.18944 12.8308 2.40698 11.6248C1.62452 10.4188 1.25287 8.99211 1.34746 7.55761C1.44205 6.12312 1.99781 4.75762 2.93186 3.66479C3.86591 2.57195 5.1282 1.81033 6.53047 1.4935C7.93274 1.17668 9.39985 1.32163 10.713 1.90674" stroke="#2DB152" stroke-width="1.8" stroke-linecap="round" stroke-linejoin="round"/>
<path d="M14.6667 2.66675L8 9.34008L6 7.34008" stroke="#2DB152" stroke-width="1.8" stroke-linecap="round" stroke-linejoin="round"/>
</g>
<defs>
<clipPath id="clip0_105_16631">
<rect width="16" height="16" fill="white"/>
</clipPath>
</defs>
</svg>
