<svg width="35" height="35" viewBox="0 0 35 35" fill="none" xmlns="http://www.w3.org/2000/svg">
<rect width="35" height="35" rx="7" fill="#3b5998"/>
<g clip-path="url(#clip0_31_1957)">
<path d="M24.4395 8H10.5603C9.14631 8 8 9.14626 8 10.5603V24.4396C8 25.8536 9.14626 26.9999 10.5603 26.9999H17.4055L17.4171 20.2104H15.6532C15.424 20.2104 15.2379 20.025 15.237 19.7958L15.2286 17.6072C15.2277 17.3767 15.4143 17.1894 15.6448 17.1894H17.4055V15.0747C17.4055 12.6206 18.9043 11.2844 21.0935 11.2844H22.8899C23.1198 11.2844 23.3061 11.4707 23.3061 11.7006V13.546C23.3061 13.7758 23.1199 13.9621 22.8902 13.9622L21.7877 13.9627C20.5972 13.9627 20.3666 14.5285 20.3666 15.3587V17.1895H22.9827C23.232 17.1895 23.4254 17.4071 23.396 17.6547L23.1366 19.8432C23.1118 20.0527 22.9342 20.2105 22.7233 20.2105H20.3783L20.3666 27H24.4396C25.8536 27 26.9999 25.8537 26.9999 24.4398V10.5603C26.9998 9.14626 25.8536 8 24.4395 8Z" fill="white"/>
</g>
<defs>
<clipPath id="clip0_31_1957">
<rect width="19" height="19" fill="white" transform="translate(8 8)"/>
</clipPath>
</defs>
</svg>
