<svg width="42" height="42" viewBox="0 0 42 42" fill="none" xmlns="http://www.w3.org/2000/svg">
<path d="M28.8365 27.6058L20.9994 35.443L13.1622 27.6058C11.6122 26.0558 10.5566 24.0809 10.129 21.931C9.70133 19.781 9.92083 17.5525 10.7597 15.5273C11.5986 13.5021 13.0192 11.7711 14.8418 10.5533C16.6644 9.33545 18.8073 8.68542 20.9994 8.68542C23.1914 8.68542 25.3343 9.33545 27.1569 10.5533C28.9795 11.7711 30.4001 13.5021 31.239 15.5273C32.0779 17.5525 32.2974 19.781 31.8697 21.931C31.4421 24.0809 30.3865 26.0558 28.8365 27.6058ZM20.9994 22.2316C21.6526 22.2316 22.279 21.9721 22.7409 21.5102C23.2028 21.0483 23.4623 20.4219 23.4623 19.7687C23.4623 19.1154 23.2028 18.489 22.7409 18.0271C22.279 17.5652 21.6526 17.3057 20.9994 17.3057C20.3461 17.3057 19.7197 17.5652 19.2578 18.0271C18.7959 18.489 18.5364 19.1154 18.5364 19.7687C18.5364 20.4219 18.7959 21.0483 19.2578 21.5102C19.7197 21.9721 20.3461 22.2316 20.9994 22.2316Z" fill="url(#paint0_linear_33_1047)"/>
<defs>
<linearGradient id="paint0_linear_33_1047" x1="32.0827" y1="8.68542" x2="5.79225" y2="30.4651" gradientUnits="userSpaceOnUse">
<stop stop-color="#40C6FF"/>
<stop offset="0.505208" stop-color="#4086F1"/>
<stop offset="1" stop-color="#8458FF"/>
</linearGradient>
</defs>
</svg>
