<svg width="20" height="20" viewBox="0 0 20 20" fill="none" xmlns="http://www.w3.org/2000/svg">
<g clip-path="url(#clip0_118_2714)">
<path d="M16.6673 18.3333H3.33398V16.6666C3.33398 15.5615 3.77297 14.5017 4.55437 13.7203C5.33577 12.9389 6.39558 12.4999 7.50065 12.4999H12.5006C13.6057 12.4999 14.6655 12.9389 15.4469 13.7203C16.2283 14.5017 16.6673 15.5615 16.6673 16.6666V18.3333ZM10.0006 10.8333C9.34404 10.8333 8.69386 10.7039 8.08723 10.4526C7.48061 10.2014 6.92941 9.83308 6.46512 9.36879C6.00082 8.90449 5.63253 8.3533 5.38125 7.74667C5.12998 7.14004 5.00065 6.48986 5.00065 5.83325C5.00065 5.17664 5.12998 4.52646 5.38125 3.91983C5.63253 3.31321 6.00082 2.76201 6.46512 2.29772C6.92941 1.83343 7.48061 1.46513 8.08723 1.21385C8.69386 0.962581 9.34404 0.833252 10.0006 0.833252C11.3267 0.833252 12.5985 1.36004 13.5362 2.29772C14.4739 3.2354 15.0006 4.50717 15.0006 5.83325C15.0006 7.15933 14.4739 8.4311 13.5362 9.36879C12.5985 10.3065 11.3267 10.8333 10.0006 10.8333Z" fill="#959FB3"/>
</g>
<defs>
<clipPath id="clip0_118_2714">
<rect width="20" height="20" fill="white"/>
</clipPath>
</defs>
</svg>
