<svg width="28" height="28" viewBox="0 0 28 28" fill="none" xmlns="http://www.w3.org/2000/svg">
<path d="M15.4619 2.33331C15.7507 2.33331 15.9932 2.57831 15.9932 2.86998V6.62665C15.9932 8.76165 17.7259 10.5116 19.8513 10.5233C20.7176 10.5233 21.4223 10.535 21.9421 10.535L22.1389 10.5341C22.494 10.5314 22.972 10.5233 23.386 10.5233C23.6863 10.5233 23.9173 10.7566 23.9173 11.0483V20.4283C23.9173 23.3216 21.584 25.6666 18.7193 25.6666H9.53613C6.52128 25.6666 4.08398 23.205 4.08398 20.1716V7.59498C4.08398 4.70165 6.40577 2.33331 9.29356 2.33331H15.4619ZM13.579 10.1966C13.1054 10.1966 12.7127 10.5816 12.7127 11.0716V16.695L10.8761 14.8283C10.5411 14.49 9.99818 14.49 9.66319 14.8283C9.32821 15.1666 9.32821 15.715 9.66319 16.065L12.9668 19.4133C13.0477 19.495 13.1401 19.5533 13.2441 19.6C13.348 19.6466 13.4635 19.67 13.579 19.67C13.6945 19.67 13.7985 19.6466 13.9025 19.6C14.0064 19.5533 14.0988 19.495 14.1797 19.4133L17.4949 16.065C17.8299 15.715 17.8299 15.1666 17.4833 14.8283C17.1483 14.49 16.6054 14.49 16.2705 14.8283L14.4338 16.695V11.0716C14.4338 10.5816 14.0526 10.1966 13.579 10.1966ZM17.6699 3.39043C17.6699 2.8876 18.274 2.63793 18.6182 3.00076C19.8681 4.3121 22.0501 6.6046 23.2699 7.8856C23.6072 8.2391 23.36 8.82593 22.8725 8.8271C21.9242 8.8306 20.8049 8.8271 19.9997 8.81893C18.7222 8.81893 17.6699 7.7561 17.6699 6.46576V3.39043Z" fill="white"/>
</svg>
