<svg width="35" height="35" viewBox="0 0 35 35" fill="none" xmlns="http://www.w3.org/2000/svg">
<rect width="35" height="35" rx="7" fill="#CBD1DC"/>
<g clip-path="url(#clip0_31_1952)">
<path d="M7.3356 17.1609L11.7136 18.7949L13.4081 24.2445C13.5166 24.5936 13.9434 24.7226 14.2266 24.491L16.667 22.5015C16.9228 22.2931 17.2872 22.2827 17.5545 22.4768L21.956 25.6724C22.2591 25.8926 22.6884 25.7266 22.7644 25.3604L25.9888 9.85063C26.0718 9.45062 25.6787 9.11691 25.2978 9.26423L7.33047 16.1955C6.88707 16.3665 6.89093 16.9942 7.3356 17.1609ZM13.135 17.9251L21.6912 12.6553C21.845 12.5609 22.0032 12.7688 21.8712 12.8913L14.8098 19.4551C14.5616 19.6862 14.4015 19.9954 14.3562 20.331L14.1156 22.1135C14.0838 22.3516 13.7494 22.3752 13.6838 22.1448L12.7586 18.8942C12.6527 18.5235 12.8071 18.1275 13.135 17.9251Z" fill="white"/>
</g>
<defs>
<clipPath id="clip0_31_1952">
<rect width="19" height="19" fill="white" transform="translate(7 8)"/>
</clipPath>
</defs>
</svg>
