<svg width="35" height="35" viewBox="0 0 35 35" fill="none" xmlns="http://www.w3.org/2000/svg">
<rect width="35" height="35" rx="7" fill="#FF0000"/>
<path d="M26.1925 12.2275C25.6771 11.3107 25.1178 11.1421 23.979 11.078C22.8414 11.0008 19.9807 10.9688 17.5024 10.9688C15.0193 10.9688 12.1574 11.0008 11.021 11.0768C9.88456 11.1421 9.32406 11.3096 8.80394 12.2275C8.27312 13.1431 8 14.7201 8 17.4964C8 17.4988 8 17.5 8 17.5C8 17.5024 8 17.5036 8 17.5036V17.5059C8 20.2704 8.27312 21.8593 8.80394 22.7654C9.32406 23.6821 9.88337 23.8484 11.0198 23.9256C12.1574 23.9921 15.0193 24.0312 17.5024 24.0312C19.9807 24.0312 22.8414 23.9921 23.9802 23.9267C25.119 23.8496 25.6783 23.6833 26.1937 22.7666C26.7292 21.8605 27 20.2716 27 17.5071C27 17.5071 27 17.5036 27 17.5012C27 17.5012 27 17.4988 27 17.4976C27 14.7201 26.7292 13.1431 26.1925 12.2275ZM15.125 21.0625V13.9375L21.0625 17.5L15.125 21.0625Z" fill="white"/>
</svg>
