<svg width="36" height="42" viewBox="0 0 36 42" fill="none" xmlns="http://www.w3.org/2000/svg">
<path fill-rule="evenodd" clip-rule="evenodd" d="M18 3.25C14.2207 3.25 10.5961 4.75133 7.92373 7.42373C5.25133 10.0961 3.75 13.7207 3.75 17.5C3.75 23.0221 7.33611 28.3439 11.2139 32.4371C13.1222 34.4514 15.0355 36.0995 16.4735 37.2445C17.082 37.7291 17.6032 38.1219 18 38.4124C18.3968 38.1219 18.918 37.7291 19.5265 37.2445C20.9645 36.0995 22.8778 34.4514 24.7861 32.4371C28.6639 28.3439 32.25 23.0221 32.25 17.5C32.25 13.7207 30.7487 10.0961 28.0763 7.42373C25.4039 4.75133 21.7793 3.25 18 3.25ZM18 40.25C17.1679 41.4981 17.1676 41.4978 17.1671 41.4975L17.1624 41.4944L17.1512 41.4869L17.112 41.4603C17.0786 41.4376 17.0306 41.4048 16.9691 41.3622C16.846 41.277 16.6688 41.1525 16.445 40.9909C15.9976 40.6678 15.3634 40.1956 14.6047 39.5914C13.0895 38.3849 11.0653 36.6424 9.03607 34.5004C5.03889 30.2811 0.75 24.2279 0.75 17.5C0.75 12.925 2.5674 8.53741 5.80241 5.30241C9.03741 2.0674 13.425 0.25 18 0.25C22.575 0.25 26.9626 2.0674 30.1976 5.30241C33.4326 8.53741 35.25 12.925 35.25 17.5C35.25 24.2279 30.9611 30.2811 26.9639 34.5004C24.9347 36.6424 22.9105 38.3849 21.3953 39.5914C20.6366 40.1956 20.0024 40.6678 19.555 40.9909C19.3312 41.1525 19.154 41.277 19.0309 41.3622C18.9694 41.4048 18.9214 41.4376 18.888 41.4603L18.8488 41.4869L18.8376 41.4944L18.8329 41.4975C18.8324 41.4978 18.8321 41.4981 18 40.25ZM18 40.25L18.8321 41.4981C18.3282 41.834 17.6718 41.834 17.1679 41.4981L18 40.25ZM18 13.75C15.9289 13.75 14.25 15.4289 14.25 17.5C14.25 19.5711 15.9289 21.25 18 21.25C20.0711 21.25 21.75 19.5711 21.75 17.5C21.75 15.4289 20.0711 13.75 18 13.75ZM11.25 17.5C11.25 13.7721 14.2721 10.75 18 10.75C21.7279 10.75 24.75 13.7721 24.75 17.5C24.75 21.2279 21.7279 24.25 18 24.25C14.2721 24.25 11.25 21.2279 11.25 17.5Z" fill="url(#paint0_linear_15_225)"/>
<defs>
<linearGradient id="paint0_linear_15_225" x1="35.25" y1="0.25" x2="-5.5518" y2="34.1696" gradientUnits="userSpaceOnUse">
<stop stop-color="#40C6FF"/>
<stop offset="0.505208" stop-color="#4086F1"/>
<stop offset="1" stop-color="#8458FF"/>
</linearGradient>
</defs>
</svg>
