<svg width="42" height="35" viewBox="0 0 42 35" fill="none" xmlns="http://www.w3.org/2000/svg">
<path fill-rule="evenodd" clip-rule="evenodd" d="M24.9498 3.56115C22.6374 2.89229 20.1933 2.82011 17.8455 3.35133C15.4977 3.88255 13.3228 4.99986 11.5236 6.599C9.72437 8.19814 8.35959 10.227 7.55657 12.4963C7.28021 13.2772 6.42308 13.6863 5.64211 13.4099C4.86113 13.1336 4.45207 12.2764 4.72843 11.4955C5.7005 8.74847 7.3526 6.29249 9.53057 4.35668C11.7085 2.42088 14.3414 1.06835 17.1835 0.425294C20.0255 -0.217761 22.9842 -0.130381 25.7834 0.679282C28.5749 1.48672 31.117 2.98623 33.1739 5.03849L38.75 10.278V3.24583C38.75 2.41741 39.4216 1.74583 40.25 1.74583C41.0784 1.74583 41.75 2.41741 41.75 3.24583V13.7458C41.75 14.5743 41.0784 15.2458 40.25 15.2458H29.75C28.9216 15.2458 28.25 14.5743 28.25 13.7458C28.25 12.9174 28.9216 12.2458 29.75 12.2458H36.4632L31.1028 7.20899C31.0914 7.19826 31.0802 7.18734 31.0691 7.17625C29.3674 5.47372 27.2621 4.23 24.9498 3.56115ZM3.25 24.2137V31.2458C3.25 32.0743 2.57843 32.7458 1.75 32.7458C0.921573 32.7458 0.25 32.0743 0.25 31.2458V20.7459C0.25 19.9174 0.921571 19.2459 1.75 19.2459L12.25 19.2458C13.0784 19.2458 13.75 19.9174 13.75 20.7458C13.75 21.5743 13.0784 22.2458 12.25 22.2458L5.53682 22.2458L10.8972 27.2827C10.9086 27.2935 10.9198 27.3044 10.9309 27.3155C12.6326 29.018 14.7379 30.2617 17.0502 30.9306C19.3626 31.5994 21.8067 31.6716 24.1545 31.1404C26.5023 30.6092 28.6772 29.4919 30.4764 27.8927C32.2756 26.2936 33.6404 24.2647 34.4434 21.9955C34.7198 21.2145 35.5769 20.8054 36.3579 21.0818C37.1389 21.3581 37.5479 22.2153 37.2716 22.9963C36.2995 25.7432 34.6474 28.1992 32.4694 30.135C30.2915 32.0708 27.6586 33.4234 24.8165 34.0664C21.9745 34.7095 19.0158 34.6221 16.2166 33.8124C13.4252 33.005 10.883 31.5055 8.8261 29.4533L3.25 24.2137Z" fill="url(#paint0_linear_15_219)"/>
<defs>
<linearGradient id="paint0_linear_15_219" x1="41.75" y1="0" x2="7.84006" y2="40.8" gradientUnits="userSpaceOnUse">
<stop stop-color="#40C6FF"/>
<stop offset="0.505208" stop-color="#4086F1"/>
<stop offset="1" stop-color="#8458FF"/>
</linearGradient>
</defs>
</svg>
