<svg width="36" height="39" viewBox="0 0 36 39" fill="none" xmlns="http://www.w3.org/2000/svg">
<path fill-rule="evenodd" clip-rule="evenodd" d="M15.5031 0.671656C16.2625 0.233994 17.1235 0.00360107 18 0.00360107C18.8764 0.00360107 19.7374 0.233972 20.4967 0.671593C20.4978 0.672219 20.4989 0.672846 20.5 0.673474L32.75 7.67346C33.3728 8.03306 33.9091 8.5218 34.3239 9.10481C34.4202 9.19856 34.5053 9.30691 34.5759 9.42892C34.6372 9.53483 34.684 9.64511 34.7171 9.7575C35.0661 10.4516 35.2492 11.2189 35.25 11.9985V26.0016C35.2491 26.8784 35.0176 27.7395 34.5788 28.4986C34.14 29.2578 33.5093 29.8881 32.75 30.3265L32.7442 30.3299L20.5 37.3265C20.4989 37.3272 20.4979 37.3278 20.4968 37.3284C19.9554 37.6404 19.3623 37.8471 18.7488 37.94C18.5284 38.0672 18.2727 38.14 18 38.14C17.7273 38.14 17.4716 38.0672 17.2512 37.94C16.6377 37.8471 16.0445 37.6404 15.5031 37.3283C15.5021 37.3277 15.501 37.3271 15.5 37.3265L3.25579 30.3299L3.25 30.3265C2.49066 29.8881 1.85995 29.2578 1.42115 28.4986C0.982357 27.7395 0.750899 26.8784 0.75 26.0016V11.9985C0.7508 11.2189 0.933839 10.4518 1.2828 9.75768C1.31589 9.64523 1.36277 9.53489 1.42407 9.42893C1.49468 9.30686 1.57986 9.19847 1.67614 9.10469C2.09096 8.52174 2.62721 8.03304 3.25 7.67347L3.25578 7.67013L8.97827 4.40016C9.21112 4.12348 9.53105 3.94721 9.87323 3.88875L15.5031 0.671656ZM10.213 7.14983L5.31666 9.94776L18 17.2846L22.8863 14.4581L10.213 7.14983ZM25.8843 12.7238L13.2294 5.42619L16.9942 3.27488L17 3.27155C17.304 3.09601 17.6489 3.0036 18 3.0036C18.3511 3.0036 18.696 3.09601 19 3.27155L30.6833 9.94775L25.8843 12.7238ZM32.25 12.5073L19.5 19.8827V34.4427L31.25 27.7285C31.2508 27.728 31.2517 27.7275 31.2525 27.727C31.5551 27.5517 31.8065 27.3001 31.9815 26.9973C32.1571 26.6937 32.2496 26.3492 32.25 25.9985V12.5073ZM16.5 34.4427V19.8827L3.75 12.5073V25.9992C3.75048 26.3497 3.84306 26.6939 4.01846 26.9973C4.19349 27.3001 4.44486 27.5517 4.74747 27.727C4.74831 27.7275 4.74916 27.728 4.75 27.7285L16.5 34.4427Z" fill="url(#paint0_linear_15_223)"/>
<defs>
<linearGradient id="paint0_linear_15_223" x1="35.25" y1="0.00360107" x2="-2.69573" y2="34.3311" gradientUnits="userSpaceOnUse">
<stop stop-color="#40C6FF"/>
<stop offset="0.505208" stop-color="#4086F1"/>
<stop offset="1" stop-color="#8458FF"/>
</linearGradient>
</defs>
</svg>
