<svg width="38" height="38" viewBox="0 0 38 38" fill="none" xmlns="http://www.w3.org/2000/svg">
<path fill-rule="evenodd" clip-rule="evenodd" d="M6.6752 8.79643C4.37977 11.5659 3 15.1218 3 19C3 22.8782 4.37977 26.4341 6.67519 29.2036L12.0228 23.856C11.0629 22.4794 10.5 20.8054 10.5 19C10.5 17.1946 11.0629 15.5206 12.0228 14.144L6.6752 8.79643ZM8.79653 6.67512L14.1441 12.0227C15.5207 11.0629 17.1946 10.5 19 10.5C20.8055 10.5 22.4794 11.0629 23.856 12.0228L29.2036 6.6752C26.4341 4.37977 22.8782 3 19 3C15.1219 3 11.566 4.37974 8.79653 6.67512ZM31.194 8.92737L31.3249 8.79652C33.6203 11.566 35 15.1219 35 19C35 22.8781 33.6203 26.434 31.3249 29.2035L25.9773 23.8559C26.9371 22.4793 27.5 20.8054 27.5 19C27.5 17.1946 26.9371 15.5207 25.9773 14.1441L31.1908 8.93067C31.1918 8.92957 31.1929 8.92848 31.194 8.92737ZM23.856 25.9772C22.4794 26.9371 20.8055 27.5 19 27.5C17.1946 27.5 15.5207 26.9371 14.1441 25.9773L8.79652 31.3249C11.566 33.6203 15.1219 35 19 35C22.8782 35 26.4341 33.6202 29.2036 31.3248L23.856 25.9772ZM0 19C0 8.50659 8.50659 0 19 0C29.4934 0 38 8.50659 38 19C38 29.4934 29.4934 38 19 38C8.50659 38 0 29.4934 0 19ZM19 13.5C15.9624 13.5 13.5 15.9624 13.5 19C13.5 22.0376 15.9624 24.5 19 24.5C22.0376 24.5 24.5 22.0376 24.5 19C24.5 15.9624 22.0376 13.5 19 13.5Z" fill="url(#paint0_linear_15_227)"/>
<defs>
<linearGradient id="paint0_linear_15_227" x1="38" y1="0" x2="3.8147e-06" y2="38" gradientUnits="userSpaceOnUse">
<stop stop-color="#40C6FF"/>
<stop offset="0.505208" stop-color="#4086F1"/>
<stop offset="1" stop-color="#8458FF"/>
</linearGradient>
</defs>
</svg>
