<svg width="18" height="18" viewBox="0 0 18 18" fill="none" xmlns="http://www.w3.org/2000/svg">
<path d="M3.16698 4.07766L0.599609 1.51108L1.71982 0.390869L4.2864 2.95824H16.353C16.4764 2.95824 16.5981 2.98707 16.7083 3.04245C16.8186 3.09783 16.9144 3.17822 16.9881 3.2772C17.0618 3.37619 17.1113 3.49102 17.1327 3.61255C17.1541 3.73407 17.1468 3.85892 17.1114 3.97712L15.2114 10.3105C15.1625 10.4736 15.0623 10.6166 14.9257 10.7183C14.7891 10.82 14.6233 10.8749 14.453 10.8749H4.75032V12.4582H13.4587V14.0416H3.95865C3.74869 14.0416 3.54732 13.9582 3.39886 13.8097C3.25039 13.6612 3.16698 13.4599 3.16698 13.2499V4.07766ZM4.35448 17.2082C4.03954 17.2082 3.73749 17.0831 3.51479 16.8604C3.2921 16.6377 3.16698 16.3357 3.16698 16.0207C3.16698 15.7058 3.2921 15.4038 3.51479 15.1811C3.73749 14.9584 4.03954 14.8332 4.35448 14.8332C4.66943 14.8332 4.97147 14.9584 5.19417 15.1811C5.41687 15.4038 5.54198 15.7058 5.54198 16.0207C5.54198 16.3357 5.41687 16.6377 5.19417 16.8604C4.97147 17.0831 4.66943 17.2082 4.35448 17.2082ZM13.8545 17.2082C13.5395 17.2082 13.2375 17.0831 13.0148 16.8604C12.7921 16.6377 12.667 16.3357 12.667 16.0207C12.667 15.7058 12.7921 15.4038 13.0148 15.1811C13.2375 14.9584 13.5395 14.8332 13.8545 14.8332C14.1694 14.8332 14.4715 14.9584 14.6942 15.1811C14.9169 15.4038 15.042 15.7058 15.042 16.0207C15.042 16.3357 14.9169 16.6377 14.6942 16.8604C14.4715 17.0831 14.1694 17.2082 13.8545 17.2082Z" fill="white"/>
</svg>
