<svg width="42" height="42" viewBox="0 0 42 42" fill="none" xmlns="http://www.w3.org/2000/svg">
<g clip-path="url(#clip0_33_1053)">
<path d="M9.92049 10.1379H32.0791C32.4056 10.1379 32.7187 10.2651 32.9496 10.4914C33.1804 10.7178 33.3101 11.0247 33.3101 11.3448V30.6552C33.3101 30.9753 33.1804 31.2822 32.9496 31.5086C32.7187 31.7349 32.4056 31.8621 32.0791 31.8621H9.92049C9.594 31.8621 9.28088 31.7349 9.05001 31.5086C8.81915 31.2822 8.68945 30.9753 8.68945 30.6552V11.3448C8.68945 11.0247 8.81915 10.7178 9.05001 10.4914C9.28088 10.2651 9.594 10.1379 9.92049 10.1379V10.1379ZM21.0737 20.6174L13.1803 14.0459L11.5861 15.8852L21.0897 23.7964L30.4221 15.8791L28.8119 14.0531L21.0749 20.6174H21.0737Z" fill="url(#paint0_linear_33_1053)"/>
</g>
<defs>
<linearGradient id="paint0_linear_33_1053" x1="33.3101" y1="10.1379" x2="11.7551" y2="34.567" gradientUnits="userSpaceOnUse">
<stop stop-color="#40C6FF"/>
<stop offset="0.505208" stop-color="#4086F1"/>
<stop offset="1" stop-color="#8458FF"/>
</linearGradient>
<clipPath id="clip0_33_1053">
<rect width="42" height="42" fill="white"/>
</clipPath>
</defs>
</svg>
