<svg width="237" height="68" viewBox="0 0 237 68" fill="none" xmlns="http://www.w3.org/2000/svg">
<path d="M75.5721 51.3834L76.8438 45.7993H71.8494L70.5776 51.3834H71.7916L72.8205 46.863H75.3871L74.3582 51.3834H75.5721Z" fill="white"/>
<path d="M80.3745 51.5222C82.2243 51.5222 83.311 49.707 83.311 47.9729C83.311 46.5046 82.4324 45.6606 81.1722 45.6606C80.467 45.6606 79.8889 45.9728 79.4149 46.5393L79.5883 45.7993H78.3744L76.6633 53.5107H77.8772L78.5247 50.5857C78.8946 51.1638 79.5652 51.5222 80.3745 51.5222ZM80.1895 50.447C79.5074 50.447 78.9755 50.1232 78.7212 49.6955L79.1952 47.5335C79.5305 47.0942 80.0623 46.7358 80.6635 46.7358C81.4612 46.7358 82.0393 47.3139 82.0393 48.2156C82.0393 49.3718 81.2878 50.447 80.1895 50.447Z" fill="white"/>
<path d="M86.7115 51.5222C88.5613 51.5222 89.8908 49.9267 89.8908 48.181C89.8908 46.7127 88.9081 45.6606 87.2086 45.6606C85.3588 45.6606 84.0293 47.2676 84.0293 49.0134C84.0293 50.4816 85.012 51.5222 86.7115 51.5222ZM86.7462 50.447C85.8328 50.447 85.2894 49.8689 85.2894 48.9556C85.2894 47.8226 86.0641 46.7358 87.1739 46.7358C88.0873 46.7358 88.6307 47.3139 88.6307 48.2272C88.6307 49.3718 87.856 50.447 86.7462 50.447Z" fill="white"/>
<path d="M93.3505 45.6606C91.7666 45.6606 90.7607 47.6029 90.7607 49.3602C90.7607 50.4701 91.2694 51.5222 92.4371 51.5222C93.0499 51.5222 93.5932 51.2678 94.0326 50.6204L93.3967 53.5107H94.6106L95.2465 50.6088C95.5702 51.1753 96.1714 51.5222 96.8188 51.5222C98.4027 51.5222 99.4086 49.5799 99.4086 47.8226C99.4086 46.7127 98.8999 45.6606 97.7322 45.6606C97.1194 45.6606 96.576 45.9496 96.1367 46.5624L96.7726 43.6721H95.5587L94.9228 46.5739C94.5991 46.0074 93.9979 45.6606 93.3505 45.6606ZM93.6048 46.7358C94.1366 46.7358 94.5644 47.0942 94.7262 47.4873L94.2407 49.6955C93.9285 50.1117 93.5123 50.447 93.0152 50.447C92.3331 50.447 92.0209 49.8458 92.0209 49.1405C92.0209 48.0307 92.6452 46.7358 93.6048 46.7358ZM96.5645 50.447C96.0327 50.447 95.6049 50.0886 95.4546 49.6955L95.9402 47.4873C96.2408 47.0711 96.657 46.7358 97.1541 46.7358C97.8362 46.7358 98.1484 47.337 98.1484 48.0422C98.1484 49.1521 97.5241 50.447 96.5645 50.447Z" fill="white"/>
<path d="M103.12 51.5222C103.825 51.5222 104.565 51.2909 105.085 50.9094L104.704 50.0654C104.311 50.366 103.721 50.5279 103.212 50.5279C102.079 50.5279 101.513 49.8227 101.513 49.1868C101.513 49.129 101.524 49.0249 101.524 48.9902H105.848C105.895 48.8168 105.952 48.4353 105.952 48.1347C105.952 46.6317 104.935 45.6606 103.49 45.6606C101.663 45.6606 100.299 47.1982 100.299 49.0249C100.299 50.5626 101.386 51.5222 103.12 51.5222ZM101.652 48.1347C101.802 47.3601 102.507 46.6549 103.397 46.6549C104.38 46.6549 104.866 47.2561 104.866 47.9729C104.866 48.0191 104.866 48.1 104.854 48.1347H101.652Z" fill="white"/>
<path d="M109.405 51.5222C110.341 51.5222 111.024 51.1175 111.463 50.6551L110.792 49.8458C110.492 50.1926 110.041 50.447 109.521 50.447C108.654 50.447 107.971 49.9267 107.971 48.9556C107.971 47.7763 108.746 46.7358 109.948 46.7358C110.492 46.7358 110.966 46.9901 111.22 47.4295L112.133 46.7358C111.752 46.0999 111.035 45.6606 109.937 45.6606C108.133 45.6606 106.734 47.1636 106.734 49.0018C106.734 50.5395 107.81 51.5222 109.405 51.5222Z" fill="white"/>
<path d="M115.152 51.5222C116.088 51.5222 116.77 51.1175 117.21 50.6551L116.539 49.8458C116.239 50.1926 115.788 50.447 115.267 50.447C114.4 50.447 113.718 49.9267 113.718 48.9556C113.718 47.7763 114.493 46.7358 115.695 46.7358C116.239 46.7358 116.713 46.9901 116.967 47.4295L117.88 46.7358C117.499 46.0999 116.782 45.6606 115.684 45.6606C113.88 45.6606 112.481 47.1636 112.481 49.0018C112.481 50.5395 113.556 51.5222 115.152 51.5222Z" fill="white"/>
<path d="M119.176 51.3834L122.633 47.522L121.789 51.3834H123.003L124.228 45.7993H123.014L119.615 49.5567L120.448 45.7993H119.234L118.008 51.3834H119.176Z" fill="white"/>
<path d="M127.469 51.5222C129.319 51.5222 130.649 49.9267 130.649 48.181C130.649 46.7127 129.666 45.6606 127.967 45.6606C126.117 45.6606 124.787 47.2676 124.787 49.0134C124.787 50.4816 125.77 51.5222 127.469 51.5222ZM127.504 50.447C126.591 50.447 126.047 49.8689 126.047 48.9556C126.047 47.8226 126.822 46.7358 127.932 46.7358C128.845 46.7358 129.389 47.3139 129.389 48.2272C129.389 49.3718 128.614 50.447 127.504 50.447Z" fill="white"/>
<path d="M132.421 51.3834L132.964 49.0018H135.53L134.987 51.3834H136.201L137.473 45.7993H136.259L135.773 47.9382H133.207L133.692 45.7993H132.478L131.207 51.3834H132.421Z" fill="white"/>
<path d="M140.911 45.6606C139.05 45.6606 137.974 47.4757 137.974 49.2215C137.974 50.6898 138.841 51.5222 140.113 51.5222C140.818 51.5222 141.396 51.21 141.859 50.6435L141.697 51.3834H142.911L144.148 45.7993H142.934L142.761 46.5971C142.391 46.019 141.709 45.6606 140.911 45.6606ZM141.096 46.7358C141.778 46.7358 142.31 47.0711 142.564 47.4988L142.079 49.6608C141.755 50.1001 141.211 50.447 140.622 50.447C139.813 50.447 139.246 49.8805 139.246 48.9787C139.246 47.811 139.998 46.7358 141.096 46.7358Z" fill="white"/>
<path d="M143.871 51.5222C145.097 51.5222 145.975 50.6782 146.634 48.655L147.224 46.863H149.247L148.265 51.3834H149.478L150.704 45.7993H146.392L145.455 48.5162C144.946 49.9845 144.565 50.5279 144.091 50.5279L143.871 51.5222Z" fill="white"/>
<path d="M152.28 45.7993L151.055 51.3834H154.361C155.703 51.3834 156.489 50.4123 156.489 49.3718C156.489 48.4584 155.818 47.8226 154.697 47.8226H153.043L153.494 45.7993H152.28ZM154.477 48.8862C154.974 48.8862 155.252 49.1174 155.252 49.4989C155.252 49.9614 154.905 50.3198 154.373 50.3198H152.5L152.812 48.8862H154.477Z" fill="white"/>
<path d="M158.512 51.3834L159.056 49.0018H161.622L161.079 51.3834H162.293L163.565 45.7993H162.351L161.865 47.9382H159.299L159.784 45.7993H158.57L157.298 51.3834H158.512Z" fill="white"/>
<path d="M170.957 51.3834L172.182 45.7993H170.968L169.743 51.3834H170.957ZM165.084 45.7993L163.858 51.3834H167.165C168.506 51.3834 169.292 50.4123 169.292 49.3718C169.292 48.4584 168.621 47.8226 167.5 47.8226H165.847L166.298 45.7993H165.084ZM167.28 48.8862C167.777 48.8862 168.055 49.1174 168.055 49.4989C168.055 49.9614 167.708 50.3198 167.176 50.3198H165.303L165.615 48.8862H167.28Z" fill="white"/>
<path d="M175.57 51.5222C176.275 51.5222 177.015 51.2909 177.535 50.9094L177.154 50.0654C176.761 50.366 176.171 50.5279 175.662 50.5279C174.529 50.5279 173.963 49.8227 173.963 49.1868C173.963 49.129 173.974 49.0249 173.974 48.9902H178.298C178.344 48.8168 178.402 48.4353 178.402 48.1347C178.402 46.6317 177.385 45.6606 175.94 45.6606C174.113 45.6606 172.749 47.1982 172.749 49.0249C172.749 50.5626 173.836 51.5222 175.57 51.5222ZM174.101 48.1347C174.252 47.3601 174.957 46.6549 175.847 46.6549C176.83 46.6549 177.315 47.2561 177.315 47.9729C177.315 48.0191 177.315 48.1 177.304 48.1347H174.101Z" fill="white"/>
<path d="M184.824 51.5222C185.761 51.5222 186.443 51.1175 186.882 50.6551L186.212 49.8458C185.911 50.1926 185.46 50.447 184.94 50.447C184.073 50.447 183.391 49.9267 183.391 48.9556C183.391 47.7763 184.165 46.7358 185.368 46.7358C185.911 46.7358 186.385 46.9901 186.639 47.4295L187.553 46.7358C187.171 46.0999 186.454 45.6606 185.356 45.6606C183.552 45.6606 182.154 47.1636 182.154 49.0018C182.154 50.5395 183.229 51.5222 184.824 51.5222Z" fill="white"/>
<path d="M190.918 51.5222C192.768 51.5222 193.854 49.707 193.854 47.9729C193.854 46.5046 192.976 45.6606 191.716 45.6606C191.01 45.6606 190.432 45.9728 189.958 46.5393L190.132 45.7993H188.918L187.207 53.5107H188.421L189.068 50.5857C189.438 51.1638 190.109 51.5222 190.918 51.5222ZM190.733 50.447C190.051 50.447 189.519 50.1232 189.265 49.6955L189.739 47.5335C190.074 47.0942 190.606 46.7358 191.207 46.7358C192.005 46.7358 192.583 47.3139 192.583 48.2156C192.583 49.3718 191.831 50.447 190.733 50.447Z" fill="white"/>
<path d="M197.405 51.5222C198.11 51.5222 198.85 51.2909 199.371 50.9094L198.989 50.0654C198.596 50.366 198.006 50.5279 197.498 50.5279C196.365 50.5279 195.798 49.8227 195.798 49.1868C195.798 49.129 195.81 49.0249 195.81 48.9902H200.134C200.18 48.8168 200.238 48.4353 200.238 48.1347C200.238 46.6317 199.22 45.6606 197.775 45.6606C195.948 45.6606 194.584 47.1982 194.584 49.0249C194.584 50.5626 195.671 51.5222 197.405 51.5222ZM195.937 48.1347C196.087 47.3601 196.792 46.6549 197.683 46.6549C198.665 46.6549 199.151 47.2561 199.151 47.9729C199.151 48.0191 199.151 48.1 199.139 48.1347H195.937Z" fill="white"/>
<path d="M199.921 52.8055H201.124L201.436 51.3834H205.193L204.881 52.8055H206.095L206.638 50.3198H206.026L207.02 45.7993H202.708L201.771 48.5162C201.262 49.9845 200.916 50.262 200.442 50.3776L199.921 52.8055ZM203.54 46.863H205.563L204.812 50.3198H201.852C202.326 49.973 202.696 49.4296 202.95 48.655L203.54 46.863Z" fill="white"/>
<path d="M210.295 51.5222C211.232 51.5222 211.914 51.1175 212.353 50.6551L211.683 49.8458C211.382 50.1926 210.931 50.447 210.411 50.447C209.544 50.447 208.862 49.9267 208.862 48.9556C208.862 47.7763 209.636 46.7358 210.839 46.7358C211.382 46.7358 211.856 46.9901 212.11 47.4295L213.024 46.7358C212.642 46.0999 211.925 45.6606 210.827 45.6606C209.023 45.6606 207.624 47.1636 207.624 49.0018C207.624 50.5395 208.7 51.5222 210.295 51.5222Z" fill="white"/>
<path d="M215.383 51.3834L216.366 46.863H217.973L218.215 45.7993H213.799L213.556 46.863H215.152L214.169 51.3834H215.383Z" fill="white"/>
<path d="M221.649 51.3834C222.759 51.3834 223.418 50.5741 223.418 49.707C223.418 49.0827 223.082 48.7475 222.643 48.5509C223.36 48.3891 223.892 47.8341 223.892 47.0133C223.892 46.2965 223.371 45.7993 222.481 45.7993H219.209L217.984 51.3834H221.649ZM219.429 50.3198L219.706 49.0596H221.533C221.972 49.0596 222.215 49.2677 222.215 49.603C222.215 50.0076 221.915 50.3198 221.441 50.3198H219.429ZM219.938 47.996L220.18 46.863H221.996C222.389 46.863 222.608 47.0479 222.608 47.3485C222.608 47.7185 222.331 47.996 221.915 47.996H219.938Z" fill="white"/>
<path d="M227.745 45.6606C225.883 45.6606 224.808 47.4757 224.808 49.2215C224.808 50.6898 225.675 51.5222 226.947 51.5222C227.652 51.5222 228.23 51.21 228.693 50.6435L228.531 51.3834H229.745L230.982 45.7993H229.768L229.594 46.5971C229.224 46.019 228.542 45.6606 227.745 45.6606ZM227.93 46.7358C228.612 46.7358 229.144 47.0711 229.398 47.4988L228.912 49.6608C228.589 50.1001 228.045 50.447 227.456 50.447C226.646 50.447 226.08 49.8805 226.08 48.9787C226.08 47.811 226.831 46.7358 227.93 46.7358Z" fill="white"/>
<path d="M93.3605 62.0082C92.4471 62.0082 91.9038 61.4302 91.9038 60.5168C91.9038 59.3838 92.6784 58.2971 93.7882 58.2971C94.7016 58.2971 95.245 58.8751 95.245 59.7885C95.245 60.933 94.4704 62.0082 93.3605 62.0082ZM93.3258 63.0834C95.1756 63.0834 96.5051 61.488 96.5051 59.7422C96.5051 58.2739 95.7421 57.2219 94.2507 57.2219C93.4992 57.2219 92.794 57.5918 92.2159 58.2046C92.5165 57.5225 93.2333 56.8635 94.6091 56.7132C95.5571 56.6091 97.0716 56.3201 97.3144 55.2333H96.1236C96.0774 55.4414 95.719 55.5802 94.771 55.7189C93.0483 55.927 92.0772 56.6901 91.291 58.1236C91.0251 58.6092 90.6436 59.6613 90.6436 60.5746C90.6436 62.0429 91.6263 63.0834 93.3258 63.0834Z" fill="white"/>
<path d="M99.9984 63.0834C101.848 63.0834 103.178 61.488 103.178 59.7422C103.178 58.2739 102.195 57.2219 100.495 57.2219C98.6457 57.2219 97.3161 58.8289 97.3161 60.5746C97.3161 62.0429 98.2989 63.0834 99.9984 63.0834ZM100.033 62.0082C99.1197 62.0082 98.5763 61.4302 98.5763 60.5168C98.5763 59.3838 99.3509 58.2971 100.461 58.2971C101.374 58.2971 101.918 58.8751 101.918 59.7885C101.918 60.933 101.143 62.0082 100.033 62.0082Z" fill="white"/>
<path d="M106.973 63.0834C108.822 63.0834 109.909 61.2683 109.909 59.5341C109.909 58.0658 109.031 57.2219 107.77 57.2219C107.065 57.2219 106.487 57.534 106.013 58.1005L106.186 57.3606H104.973L103.261 65.072H104.475L105.123 62.147C105.493 62.725 106.163 63.0834 106.973 63.0834ZM106.788 62.0082C106.106 62.0082 105.574 61.6845 105.319 61.2568L105.793 59.0948C106.129 58.6555 106.66 58.2971 107.262 58.2971C108.059 58.2971 108.637 58.8751 108.637 59.7769C108.637 60.933 107.886 62.0082 106.788 62.0082Z" fill="white"/>
<path d="M111.645 57.3606L110.419 62.9447H113.726C115.067 62.9447 115.853 61.9736 115.853 60.933C115.853 60.0197 115.183 59.3838 114.061 59.3838H112.408L112.859 57.3606H111.645ZM113.841 60.4475C114.339 60.4475 114.616 60.6787 114.616 61.0602C114.616 61.5227 114.269 61.8811 113.737 61.8811H111.864L112.177 60.4475H113.841Z" fill="white"/>
<path d="M119.588 62.0082C118.675 62.0082 118.131 61.4302 118.131 60.5168C118.131 59.3838 118.906 58.2971 120.016 58.2971C120.929 58.2971 121.472 58.8751 121.472 59.7885C121.472 60.933 120.698 62.0082 119.588 62.0082ZM119.553 63.0834C121.403 63.0834 122.733 61.488 122.733 59.7422C122.733 58.2739 121.969 57.2219 120.478 57.2219C119.727 57.2219 119.021 57.5918 118.443 58.2046C118.744 57.5225 119.461 56.8635 120.836 56.7132C121.784 56.6091 123.299 56.3201 123.542 55.2333H122.351C122.305 55.4414 121.946 55.5802 120.998 55.7189C119.276 55.927 118.305 56.6901 117.518 58.1236C117.252 58.6092 116.871 59.6613 116.871 60.5746C116.871 62.0429 117.854 63.0834 119.553 63.0834Z" fill="white"/>
<path d="M130.434 62.9447L131.66 57.3606H130.446L129.22 62.9447H130.434ZM124.561 57.3606L123.335 62.9447H126.642C127.983 62.9447 128.769 61.9736 128.769 60.933C128.769 60.0197 128.099 59.3838 126.977 59.3838H125.324L125.775 57.3606H124.561ZM126.758 60.4475C127.255 60.4475 127.532 60.6787 127.532 61.0602C127.532 61.5227 127.185 61.8811 126.654 61.8811H124.781L125.093 60.4475H126.758Z" fill="white"/>
<path d="M137.866 63.0834C138.803 63.0834 139.485 62.6788 139.924 62.2163L139.253 61.407C138.953 61.7539 138.502 62.0082 137.982 62.0082C137.115 62.0082 136.432 61.488 136.432 60.5168C136.432 59.3376 137.207 58.2971 138.409 58.2971C138.953 58.2971 139.427 58.5514 139.681 58.9907L140.595 58.2971C140.213 57.6612 139.496 57.2219 138.398 57.2219C136.594 57.2219 135.195 58.7248 135.195 60.5631C135.195 62.1007 136.271 63.0834 137.866 63.0834Z" fill="white"/>
<path d="M147.357 62.9447C148.467 62.9447 149.126 62.1354 149.126 61.2683C149.126 60.644 148.79 60.3087 148.351 60.1122C149.068 59.9503 149.6 59.3954 149.6 58.5745C149.6 57.8577 149.079 57.3606 148.189 57.3606H144.917L143.692 62.9447H147.357ZM145.137 61.8811L145.414 60.6209H147.241C147.68 60.6209 147.923 60.829 147.923 61.1643C147.923 61.5689 147.623 61.8811 147.149 61.8811H145.137ZM145.646 59.5572L145.888 58.4242H147.704C148.097 58.4242 148.316 58.6092 148.316 58.9098C148.316 59.2798 148.039 59.5572 147.623 59.5572H145.646Z" fill="white"/>
<path d="M153.545 63.0834C155.395 63.0834 156.482 61.2683 156.482 59.5341C156.482 58.0658 155.603 57.2219 154.343 57.2219C153.638 57.2219 153.06 57.534 152.586 58.1005L152.759 57.3606H151.545L149.834 65.072H151.048L151.695 62.147C152.065 62.725 152.736 63.0834 153.545 63.0834ZM153.36 62.0082C152.678 62.0082 152.146 61.6845 151.892 61.2568L152.366 59.0948C152.701 58.6555 153.233 58.2971 153.834 58.2971C154.632 58.2971 155.21 58.8751 155.21 59.7769C155.21 60.933 154.458 62.0082 153.36 62.0082Z" fill="white"/>
<path d="M160.032 63.0834C160.738 63.0834 161.478 62.8522 161.998 62.4707L161.616 61.6267C161.223 61.9273 160.634 62.0892 160.125 62.0892C158.992 62.0892 158.425 61.3839 158.425 60.7481C158.425 60.6903 158.437 60.5862 158.437 60.5515H162.761C162.807 60.3781 162.865 59.9966 162.865 59.696C162.865 58.193 161.848 57.2219 160.402 57.2219C158.576 57.2219 157.211 58.7595 157.211 60.5862C157.211 62.1238 158.298 63.0834 160.032 63.0834ZM158.564 59.696C158.714 58.9214 159.42 58.2161 160.31 58.2161C161.293 58.2161 161.778 58.8173 161.778 59.5341C161.778 59.5804 161.778 59.6613 161.767 59.696H158.564Z" fill="white"/>
<path d="M162.549 64.3667H163.751L164.063 62.9447H167.821L167.508 64.3667H168.722L169.266 61.8811H168.653L169.647 57.3606H165.335L164.398 60.0775C163.89 61.5458 163.543 61.8233 163.069 61.9389L162.549 64.3667ZM166.167 58.4242H168.191L167.439 61.8811H164.479C164.953 61.5342 165.323 60.9908 165.578 60.2162L166.167 58.4242Z" fill="white"/>
<path d="M171.2 62.9447L174.657 59.0832L173.813 62.9447H175.027L176.252 57.3606H175.038L171.639 61.118L172.472 57.3606H171.258L170.032 62.9447H171.2Z" fill="white"/>
<path d="M178.834 62.9447L179.817 58.4242H181.424L181.667 57.3606H177.251L177.008 58.4242H178.603L177.62 62.9447H178.834Z" fill="white"/>
<path d="M184.476 63.0834C185.181 63.0834 185.921 62.8522 186.441 62.4707L186.06 61.6267C185.667 61.9273 185.077 62.0892 184.568 62.0892C183.435 62.0892 182.869 61.3839 182.869 60.7481C182.869 60.6903 182.88 60.5862 182.88 60.5515H187.204C187.251 60.3781 187.308 59.9966 187.308 59.696C187.308 58.193 186.291 57.2219 184.846 57.2219C183.019 57.2219 181.655 58.7595 181.655 60.5862C181.655 62.1238 182.742 63.0834 184.476 63.0834ZM183.008 59.696C183.158 58.9214 183.863 58.2161 184.753 58.2161C185.736 58.2161 186.222 58.8173 186.222 59.5341C186.222 59.5804 186.222 59.6613 186.21 59.696H183.008Z" fill="white"/>
<path d="M187.258 63.0834C188.484 63.0834 189.362 62.2395 190.021 60.2162L190.611 58.4242H192.634L191.651 62.9447H192.865L194.091 57.3606H189.778L188.842 60.0775C188.333 61.5458 187.952 62.0892 187.478 62.0892L187.258 63.0834Z" fill="white"/>
<path d="M195.69 62.9447L197.355 60.9215H198.581L198.141 62.9447H199.355L200.581 57.3606H197.263C195.922 57.3606 195.135 58.3318 195.135 59.3723C195.135 60.0891 195.54 60.5746 196.13 60.7943L194.245 62.9447H195.69ZM197.147 59.8578C196.65 59.8578 196.372 59.6266 196.372 59.2451C196.372 58.7826 196.719 58.4242 197.251 58.4242H199.124L198.812 59.8578H197.147Z" fill="white"/>
<path d="M207.177 62.9447L208.403 57.3606H206.749L204.425 60.9677L203.674 57.3606H202.148L200.922 62.9447H202.136L202.98 59.0601L203.813 62.9447H204.298L206.807 59.0601L205.963 62.9447H207.177Z" fill="white"/>
<path d="M209.914 62.9447L213.371 59.0832L212.527 62.9447H213.741L214.967 57.3606H213.753L210.354 61.118L211.186 57.3606H209.972L208.747 62.9447H209.914Z" fill="white"/>
<path d="M98.5866 12.3731L93.8279 39.5652H86.9921L90.867 18.2647H83.5448L79.6654 39.5652H72.8296L77.626 12.3731H98.5866Z" fill="white"/>
<path d="M116.611 39.5652H97.6524L102.449 12.3731H121.408L120.35 18.2647H108.189L107.321 23.3632H117.367L116.309 29.2548H106.263L105.508 33.6736H117.669L116.611 39.5652Z" fill="white"/>
<path d="M129.006 40.0939C125.406 40.0939 122.913 39.3134 121.528 37.7524C120.571 36.6446 120.093 35.0961 120.093 33.1071C120.093 32.251 120.181 31.332 120.357 30.3501L121.906 21.6637C123.039 15.2937 127.13 12.1087 134.18 12.1087C137.101 12.1087 139.316 12.7382 140.827 13.997C142.338 15.2308 143.093 16.9303 143.093 19.0956C143.093 20.1027 142.942 21.1098 142.64 22.1169C142.363 23.0989 142.086 23.829 141.809 24.3074L141.393 25.0627H134.709C135.54 24.106 135.955 22.7464 135.955 20.9839C135.955 20.0523 135.716 19.3222 135.237 18.7934C134.759 18.2395 134.054 17.9626 133.123 17.9626C130.58 17.9626 129.069 19.3725 128.591 22.1924L127.269 29.8213C127.143 30.476 127.08 31.118 127.08 31.7475C127.08 33.4092 128.074 34.2401 130.063 34.2401C132.455 34.2401 133.89 32.893 134.369 30.199H141.167L140.978 31.2943C139.971 37.1607 135.98 40.0939 129.006 40.0939Z" fill="white"/>
<path d="M169.321 18.2647H160.03L156.291 39.5652H149.455L153.194 18.2647H143.866L144.923 12.3731H170.378L169.321 18.2647Z" fill="white"/>
<path d="M216.445 12.3731L207.796 26.0824L211.649 39.5652H204.473L201.64 29.5947H198.657L196.882 39.5652H190.084L194.88 12.3731H201.678L199.677 23.7031H202.094L209.269 12.3731H216.445Z" fill="white"/>
<path d="M222.913 40.0939C219.312 40.0939 216.82 39.3134 215.435 37.7524C214.478 36.6446 214 35.0961 214 33.1071C214 32.251 214.088 31.332 214.264 30.3501L215.812 21.6637C216.945 15.2937 221.037 12.1087 228.087 12.1087C231.007 12.1087 233.223 12.7382 234.734 13.997C236.244 15.2308 237 16.9303 237 19.0956C237 20.1027 236.849 21.1098 236.546 22.1169C236.269 23.0989 235.992 23.829 235.716 24.3074L235.3 25.0627H228.615C229.446 24.106 229.862 22.7464 229.862 20.9839C229.862 20.0523 229.622 19.3222 229.144 18.7934C228.666 18.2395 227.961 17.9626 227.029 17.9626C224.486 17.9626 222.976 19.3725 222.497 22.1924L221.175 29.8213C221.049 30.476 220.986 31.118 220.986 31.7475C220.986 33.4092 221.981 34.2401 223.97 34.2401C226.362 34.2401 227.797 32.893 228.275 30.199H235.073L234.885 31.2943C233.878 37.1607 229.887 40.0939 222.913 40.0939Z" fill="white"/>
<path d="M182.286 12.1087C185.887 12.1087 188.379 12.8892 189.764 14.4502C190.721 15.5581 191.199 17.1065 191.199 19.0956C191.199 19.9516 191.111 20.8706 190.935 21.8525L189.386 30.5389C188.253 36.9089 184.162 40.0939 177.112 40.0939C174.191 40.0939 171.976 39.4645 170.465 38.2056C168.954 36.9719 168.199 35.2724 168.199 33.1071C168.199 32.0999 168.35 31.0928 168.652 30.0857C168.929 29.1038 169.206 28.3736 169.483 27.8952L169.899 27.1399H176.583C175.753 28.0967 175.337 29.4563 175.337 31.2187C175.337 32.1503 175.576 32.8805 176.055 33.4092C176.533 33.9631 177.238 34.2401 178.17 34.2401C180.522 34.2401 181.991 33.0338 182.576 30.6214C182.673 30.225 182.841 29.8462 183.106 29.5357H179.173L180.501 23.6659H183.767C183.892 23.0112 184.212 21.0846 184.212 20.4552C184.212 18.7934 183.218 17.9626 181.229 17.9626C178.837 17.9626 177.402 19.3096 176.923 22.0036H170.125L170.314 20.9084C171.321 15.0419 175.312 12.1087 182.286 12.1087Z" fill="white"/>
<path d="M30.4919 12.4171C33.4158 12.4171 36.2862 13.0502 38.8977 14.2425V13.3834C38.8977 12.6005 38.7802 11.8441 38.5654 11.1272V3.44266L35.5456 0L32.7887 2.25917L34.951 4.72422V6.5008C33.6575 5.71499 32.1291 5.25849 30.4918 5.25849C28.8545 5.25849 27.3261 5.71499 26.0325 6.5008V4.72433L28.1948 2.25917L25.4379 0L22.4183 3.44266V11.1272C22.2034 11.8441 22.086 12.6005 22.086 13.3834V14.2425C24.6975 13.0502 27.568 12.4171 30.4919 12.4171Z" fill="url(#paint0_radial_39_4030)"/>
<path d="M30.4974 31.6147V31.6216L30.5048 31.6253C30.5109 31.6218 30.5047 31.6185 30.499 31.6155L30.4974 31.6147Z" fill="url(#paint1_radial_39_4030)"/>
<path d="M30.4974 31.6147C30.4922 31.6119 30.4885 31.6093 30.4974 31.607V31.6147Z" fill="url(#paint2_radial_39_4030)"/>
<path d="M30.4974 31.6025C30.5083 31.5995 30.5202 31.6009 30.4974 31.607V31.6025Z" fill="url(#paint3_radial_39_4030)"/>
<path fill-rule="evenodd" clip-rule="evenodd" d="M27.4784 34.8121L27.3001 34.6333L8.58002 34.6819C8.37926 34.6819 8.18643 34.7602 8.04254 34.9002L2.76213 40.0377C2.46458 40.3272 1.9912 40.329 1.69144 40.0418L0.237538 38.6488C-0.0772576 38.3472 -0.0794608 37.8448 0.232677 37.5404L7.04979 30.8934C7.19374 30.753 7.38683 30.6745 7.58787 30.6745L23.3125 30.6354L7.51934 14.8019C7.42326 14.7055 7.36931 14.575 7.36931 14.439V7.70751C7.36931 7.42373 7.59936 7.19368 7.88314 7.19368H10.5625C10.8463 7.19368 11.0763 7.42373 11.0763 7.70751V12.3765C11.0763 12.5125 11.1303 12.643 11.2264 12.7394L29.0605 30.6212L30.4974 30.6176V30.6973C30.5324 30.6759 30.5372 30.6454 30.5312 30.6177L31.6704 30.6205L49.5515 12.7394C49.6478 12.6431 49.702 12.5124 49.702 12.3761V7.70751C49.702 7.42373 49.932 7.19368 50.2158 7.19368H52.8436C53.1274 7.19368 53.3575 7.42373 53.3575 7.70751V14.439C53.3575 14.575 53.3035 14.7055 53.2074 14.8019L37.415 30.6348L53.3957 30.6745C53.5967 30.6745 53.7898 30.753 53.9338 30.8934L60.7509 37.5404C61.063 37.8448 61.0608 38.3472 60.746 38.6488L59.2921 40.0418C58.9924 40.329 58.519 40.3272 58.2214 40.0377L52.941 34.9002C52.7971 34.7602 52.6043 34.6819 52.4036 34.6819L33.4274 34.6326L33.2483 34.8121L33.2482 34.8123L33.2483 34.8125L53.2074 54.8227C53.3035 54.919 53.3575 55.0495 53.3575 55.1855V61.917C53.3575 62.2008 53.1274 62.4309 52.8436 62.4309H50.2158C49.932 62.4309 49.702 62.2008 49.702 61.917V57.2484C49.702 57.1122 49.6478 56.9815 49.5515 56.8851L30.3634 37.697L11.2264 56.8852C11.1303 56.9815 11.0763 57.112 11.0763 57.248V61.917C11.0763 62.2008 10.8463 62.4309 10.5625 62.4309H7.88314C7.59936 62.4309 7.36931 62.2008 7.36931 61.917V55.1855C7.36931 55.0495 7.42326 54.919 7.51934 54.8227L27.4784 34.8125V34.8121ZM30.4974 31.7146V31.6922C30.548 31.6779 30.524 31.6649 30.5027 31.6533L30.4974 31.6504V31.628C30.5008 31.6271 30.5032 31.6261 30.5048 31.6253C30.6041 31.6736 30.5802 31.6158 30.5411 31.5211C30.5268 31.4864 30.5105 31.4469 30.4974 31.4057V31.2993L30.4984 31.2931C30.5053 31.2504 30.5125 31.206 30.4974 31.1603V31.2993C30.4914 31.3361 30.4865 31.3717 30.4974 31.4057V31.6025C30.4873 31.6053 30.4779 31.6117 30.4974 31.6216V31.628C30.4727 31.6347 30.4826 31.6422 30.4974 31.6504V31.6922C30.492 31.6997 30.4947 31.7071 30.4974 31.7146V31.7376C30.5029 31.73 30.5001 31.7222 30.4974 31.7146Z" fill="url(#paint4_radial_39_4030)"/>
<mask id="mask0_39_4030" style="mask-type:alpha" maskUnits="userSpaceOnUse" x="0" y="0" width="61" height="63">
<path d="M38.8977 13.3834V14.2425C36.2862 13.0502 33.4158 12.4171 30.4919 12.4171C27.568 12.4171 24.6975 13.0502 22.086 14.2425V13.3834C22.086 12.6005 22.2034 11.8441 22.4183 11.1272V3.44266L25.4379 0L28.1948 2.25917L26.0325 4.72433V6.5008C27.3261 5.71499 28.8545 5.25849 30.4918 5.25849C32.1291 5.25849 33.6575 5.71499 34.951 6.5008V4.72422L32.7887 2.25917L35.5456 0L38.5654 3.44266V11.1272C38.7802 11.8441 38.8977 12.6005 38.8977 13.3834Z" fill="url(#paint5_radial_39_4030)"/>
<path fill-rule="evenodd" clip-rule="evenodd" d="M30.4974 32.9778C30.4974 32.9778 30.4562 33.3114 30.4974 33.5349V34.625L8.58002 34.6819C8.37926 34.6819 8.18643 34.7602 8.04254 34.9002L2.76213 40.0377C2.46458 40.3272 1.9912 40.329 1.69144 40.0418L0.237538 38.6488C-0.0772576 38.3472 -0.0794608 37.8448 0.232677 37.5404L7.04979 30.8934C7.19374 30.753 7.38683 30.6745 7.58787 30.6745L30.4974 30.6176V31.1168V30.6973C30.5784 30.6479 30.4974 30.5496 30.4974 30.5496V30.2082C30.6063 30.1721 30.4974 30.1559 30.4974 30.1559C30.4974 30.1559 30.5589 30.3398 30.4974 30.4407V30.5616C30.4974 30.5616 30.4258 30.4889 30.4974 30.5037C30.5727 30.261 30.6467 30.1628 30.4974 30.1559V31.1603V30.6176L53.3957 30.6745C53.5967 30.6745 53.7898 30.753 53.9338 30.8934L60.7509 37.5404C61.063 37.8448 61.0608 38.3472 60.746 38.6488L59.2921 40.0418C58.9924 40.329 58.519 40.3272 58.2214 40.0377L52.941 34.9002C52.7971 34.7602 52.6043 34.6819 52.4036 34.6819L30.4974 34.625V33.2505V31.4919V32.8965V32.1978C30.4474 32.2591 30.579 32.3083 30.4974 32.3371C30.4918 32.394 30.5014 32.4525 30.4974 32.5127C30.5315 32.5195 30.5635 32.6134 30.4974 32.9778V33.0245C30.4974 34.625 30.4974 34.625 30.4974 33.0398V33.1189C30.5029 33.0736 30.4943 33.0266 30.4974 32.9778C30.5737 32.9579 30.4226 32.9334 30.4974 32.9082V32.9372C30.5193 32.9511 30.4683 32.9647 30.4974 32.9778ZM30.4974 31.7376C30.5084 31.7224 30.4866 31.7072 30.4974 31.6922C30.5891 31.6663 30.4358 31.6446 30.4974 31.628C30.5281 31.6197 30.4759 31.6126 30.4974 31.607C30.5413 31.5953 30.4568 31.601 30.4974 31.6216C30.6437 31.6959 30.5472 31.5621 30.4974 31.4057C30.4734 31.3305 30.5263 31.2479 30.4974 31.1603V31.6922V31.7376Z" fill="url(#paint6_radial_39_4030)"/>
<path d="M30.4974 33.1189V33.9293C30.4974 33.9293 30.5232 33.6751 30.4974 33.5349V33.1189Z" fill="url(#paint7_radial_39_4030)"/>
<path d="M30.4974 32.8965V33.6948V33.2505V32.8965Z" fill="url(#paint8_radial_39_4030)"/>
<path d="M49.5515 56.8851C49.6478 56.9815 49.702 57.1122 49.702 57.2484V61.917C49.702 62.2008 49.932 62.4309 50.2158 62.4309H52.8436C53.1274 62.4309 53.3575 62.2008 53.3575 61.917V55.1855C53.3575 55.0495 53.3035 54.919 53.2074 54.8227L33.2482 34.8123C33.2867 34.7737 33.2867 34.7113 33.2482 34.6727L30.5321 31.9567C30.4822 31.9068 30.3986 31.9179 30.3634 31.979C30.3558 31.9285 30.2941 31.9079 30.2576 31.9437L27.4792 34.6733C27.4405 34.7114 27.4402 34.7738 27.4786 34.8123L7.51934 54.8227C7.42326 54.919 7.36931 55.0495 7.36931 55.1855V61.917C7.36931 62.2008 7.59936 62.4309 7.88314 62.4309H10.5625C10.8463 62.4309 11.0763 62.2008 11.0763 61.917V57.248C11.0763 57.112 11.1303 56.9815 11.2264 56.8852L30.3634 37.697L49.5515 56.8851Z" fill="url(#paint9_radial_39_4030)"/>
<path d="M49.5515 12.7394C49.6478 12.6431 49.702 12.5124 49.702 12.3761V7.70751C49.702 7.42373 49.932 7.19368 50.2158 7.19368H52.8436C53.1274 7.19368 53.3575 7.42373 53.3575 7.70751V14.439C53.3575 14.575 53.3035 14.7055 53.2074 14.8019L33.2482 34.8123C33.2867 34.8508 33.2867 34.9133 33.2482 34.9518L30.5321 37.6679C30.4822 37.7178 30.3986 37.7067 30.3634 37.6455C30.3558 37.6961 30.2941 37.7167 30.2576 37.6809L27.4792 34.9512C27.4405 34.9131 27.4402 34.8507 27.4786 34.8123L7.51934 14.8019C7.42326 14.7055 7.36931 14.575 7.36931 14.439V7.70751C7.36931 7.42373 7.59936 7.19368 7.88314 7.19368H10.5625C10.8463 7.19368 11.0763 7.42373 11.0763 7.70751V12.3765C11.0763 12.5125 11.1303 12.643 11.2264 12.7394L30.3634 31.9275L49.5515 12.7394Z" fill="url(#paint10_radial_39_4030)"/>
</mask>
<g mask="url(#mask0_39_4030)">
<g opacity="0.6" filter="url(#filter0_f_39_4030)">
<path d="M52.581 20.0002C52.5664 18.6034 51.7083 17.4496 50.5981 17.322C41.3717 16.241 33.8422 10.065 31.36 7.80588C30.8412 7.3322 30.1382 7.3322 29.6194 7.80588C27.1419 10.065 19.6125 16.241 10.3862 17.322C9.2759 17.4496 8.4226 18.6034 8.4032 20.0002C8.29169 29.1155 9.46014 60.0626 29.9346 66.9492C30.3816 67.0986 30.576 67.1267 31.0166 66.9593C31.0264 66.9556 31.0359 66.9522 31.0448 66.9492C51.5192 60.0687 52.6876 29.1154 52.581 20.0002Z" fill="url(#paint11_linear_39_4030)"/>
</g>
<g filter="url(#filter1_f_39_4030)">
<path d="M52.581 20.0002C52.5664 18.6034 51.7083 17.4496 50.5981 17.322C41.3717 16.241 33.8422 10.065 31.36 7.80588C30.8412 7.3322 30.1382 7.3322 29.6194 7.80588C27.1419 10.065 19.6125 16.241 10.3862 17.322C9.2759 17.4496 8.4226 18.6034 8.4032 20.0002C8.29169 29.1155 9.46014 60.0626 29.9346 66.9492C30.3816 67.0986 30.576 67.1267 31.0166 66.9593C31.0264 66.9556 31.0359 66.9522 31.0448 66.9492C51.5192 60.0687 52.6876 29.1154 52.581 20.0002Z" fill="url(#paint12_linear_39_4030)"/>
</g>
</g>
<path d="M52.581 20.0002C52.5664 18.6034 51.7083 17.4496 50.5981 17.322C41.3717 16.241 33.8422 10.065 31.36 7.80588C30.8412 7.3322 30.1382 7.3322 29.6194 7.80588C27.1419 10.065 19.6125 16.241 10.3862 17.322C9.2759 17.4496 8.4226 18.6034 8.4032 20.0002C8.29169 29.1155 9.46014 60.0626 29.9346 66.9492C30.3816 67.0986 30.576 67.1267 31.0166 66.9593C31.0264 66.9556 31.0359 66.9522 31.0448 66.9492C51.5192 60.0687 52.6876 29.1154 52.581 20.0002Z" fill="url(#paint13_linear_39_4030)"/>
<path d="M31.36 7.80588C33.8422 10.065 41.3717 16.241 50.5981 17.322C51.7083 17.4496 52.5664 18.6034 52.581 20.0002C52.6876 29.1154 51.5192 60.0687 31.0448 66.9492L31.36 7.80588ZM31.36 7.80588C30.8412 7.3322 30.1382 7.3322 29.6194 7.80588M31.36 7.80588H29.6194M29.6194 7.80588L29.6194 7.8059L29.6194 7.80588ZM52.081 20.0054L52.081 20.006C52.1341 24.5447 51.8686 34.5046 49.0508 44.1728C46.2292 53.8541 40.8896 63.113 30.8864 66.475C30.8707 66.4803 30.8549 66.4859 30.8392 66.4919L30.839 66.4919C30.6497 66.5639 30.5606 66.5753 30.493 66.5733C30.4139 66.5709 30.3152 66.5492 30.094 66.4753C20.0901 63.1105 14.7503 53.8513 11.9292 44.1706C9.11208 34.5035 8.84766 24.5454 8.90316 20.0067C8.92049 18.7699 9.66429 17.9083 10.4432 17.8187L10.4443 17.8186C19.8344 16.7185 27.4628 10.4491 29.9563 8.17535L29.9566 8.17512C30.2844 7.87579 30.695 7.87579 31.0228 8.17512L31.0234 8.17567C33.5214 10.449 41.1499 16.7185 50.5399 17.8186L50.541 17.8187C51.3212 17.9084 52.0681 18.7714 52.081 20.0054Z" stroke="white" stroke-opacity="0.25"/>
<mask id="mask1_39_4030" style="mask-type:alpha" maskUnits="userSpaceOnUse" x="8" y="7" width="45" height="61">
<path d="M52.581 20.0002C52.5664 18.6034 51.7083 17.4496 50.5981 17.322C41.3717 16.241 33.8422 10.065 31.36 7.80588C30.8412 7.3322 30.1382 7.3322 29.6194 7.80588C27.1419 10.065 19.6125 16.241 10.3862 17.322C9.2759 17.4496 8.4226 18.6034 8.4032 20.0002C8.29169 29.1155 9.46014 60.0626 29.9346 66.9492C30.3816 67.0986 30.576 67.1267 31.0166 66.9593C31.0264 66.9556 31.0359 66.9522 31.0448 66.9492C51.5192 60.0687 52.6876 29.1154 52.581 20.0002Z" fill="url(#paint14_linear_39_4030)"/>
<path d="M31.36 7.80588C33.8422 10.065 41.3717 16.241 50.5981 17.322C51.7083 17.4496 52.5664 18.6034 52.581 20.0002C52.6876 29.1154 51.5192 60.0687 31.0448 66.9492L31.36 7.80588ZM31.36 7.80588C30.8412 7.3322 30.1382 7.3322 29.6194 7.80588M31.36 7.80588H29.6194M29.6194 7.80588L29.6194 7.8059L29.6194 7.80588ZM52.081 20.0054L52.081 20.006C52.1341 24.5447 51.8686 34.5046 49.0508 44.1728C46.2292 53.8541 40.8896 63.113 30.8864 66.475C30.8707 66.4803 30.8549 66.4859 30.8392 66.4919L30.839 66.4919C30.6497 66.5639 30.5606 66.5753 30.493 66.5733C30.4139 66.5709 30.3152 66.5492 30.094 66.4753C20.0901 63.1105 14.7503 53.8513 11.9292 44.1706C9.11208 34.5035 8.84766 24.5454 8.90316 20.0067C8.92049 18.7699 9.66429 17.9083 10.4432 17.8187L10.4443 17.8186C19.8344 16.7185 27.4628 10.4491 29.9563 8.17535L29.9566 8.17512C30.2844 7.87579 30.695 7.87579 31.0228 8.17512L31.0234 8.17567C33.5214 10.449 41.1499 16.7185 50.5399 17.8186L50.541 17.8187C51.3212 17.9084 52.0681 18.7714 52.081 20.0054Z" stroke="white" stroke-opacity="0.25"/>
</mask>
<g mask="url(#mask1_39_4030)">
<g opacity="0.5">
<path d="M49.1162 56.4498C49.4912 56.8249 49.7019 57.3336 49.7019 57.8641V60.6031C49.7019 61.6126 50.5203 62.4309 51.5297 62.4309C52.5391 62.4309 53.3575 61.6126 53.3575 60.6031V55.8C53.3575 55.2705 53.1475 54.7626 52.7735 54.3876L33.2482 34.8123L55.5401 12.5204C56.3211 11.7393 56.3211 10.473 55.5401 9.69194L55.4853 9.63712C54.7036 8.85548 53.4361 8.85616 52.6553 9.63866L30.3634 31.979L8.1105 9.62923C7.33482 8.85018 6.07578 8.84324 5.29157 9.61369L5.21182 9.69205C4.41895 10.471 4.4133 11.747 5.19924 12.5329L27.4786 34.8123L7.95328 54.3876C7.57931 54.7626 7.3693 55.2705 7.3693 55.8V60.5774C7.3693 61.601 8.19915 62.4309 9.22282 62.4309C10.2465 62.4309 11.0763 61.601 11.0763 60.5774V57.8625C11.0763 57.333 11.2863 56.8251 11.6602 56.4502L30.3634 37.6971L49.1162 56.4498Z" fill="url(#paint15_radial_39_4030)"/>
<path d="M49.1162 56.4498C49.4912 56.8249 49.7019 57.3336 49.7019 57.8641V60.6031C49.7019 61.6126 50.5203 62.4309 51.5297 62.4309C52.5391 62.4309 53.3575 61.6126 53.3575 60.6031V55.8C53.3575 55.2705 53.1475 54.7626 52.7735 54.3876L33.2482 34.8123L55.5401 12.5204C56.3211 11.7393 56.3211 10.473 55.5401 9.69194L55.4853 9.63712C54.7036 8.85548 53.4361 8.85616 52.6553 9.63866L30.3634 31.979L8.1105 9.62923C7.33482 8.85018 6.07578 8.84324 5.29157 9.61369L5.21182 9.69205C4.41895 10.471 4.4133 11.747 5.19924 12.5329L27.4786 34.8123L7.95328 54.3876C7.57931 54.7626 7.3693 55.2705 7.3693 55.8V60.5774C7.3693 61.601 8.19915 62.4309 9.22282 62.4309C10.2465 62.4309 11.0763 61.601 11.0763 60.5774V57.8625C11.0763 57.333 11.2863 56.8251 11.6602 56.4502L30.3634 37.6971L49.1162 56.4498Z" fill="#101426"/>
</g>
</g>
<path opacity="0.7" d="M8.40283 20.0002C8.41738 18.6034 9.27553 17.4496 10.3857 17.322C19.6121 16.241 27.1415 10.065 29.6238 7.80588C30.5601 6.95097 31.6372 8.40528 32.0727 9.59603C38.5493 27.3056 26.6214 38.0836 26.3812 50.8696C26.2229 59.2997 29.714 65.0258 30.7584 66.5458C30.8966 66.7469 30.8585 67.1545 30.7237 67.3579C30.6162 67.5201 30.4928 67.3978 30.372 67.2453C30.2472 67.0878 30.0544 66.9878 29.939 66.9492C9.46455 60.0687 8.29617 29.1154 8.40283 20.0002Z" fill="url(#paint16_linear_39_4030)"/>
<defs>
<filter id="filter0_f_39_4030" x="-5.60303" y="-6.54938" width="72.1899" height="87.6229" filterUnits="userSpaceOnUse" color-interpolation-filters="sRGB">
<feFlood flood-opacity="0" result="BackgroundImageFix"/>
<feBlend mode="normal" in="SourceGraphic" in2="BackgroundImageFix" result="shape"/>
<feGaussianBlur stdDeviation="7" result="effect1_foregroundBlur_39_4030"/>
</filter>
<filter id="filter1_f_39_4030" x="-5.60303" y="-6.54938" width="72.1899" height="87.6229" filterUnits="userSpaceOnUse" color-interpolation-filters="sRGB">
<feFlood flood-opacity="0" result="BackgroundImageFix"/>
<feBlend mode="normal" in="SourceGraphic" in2="BackgroundImageFix" result="shape"/>
<feGaussianBlur stdDeviation="7" result="effect1_foregroundBlur_39_4030"/>
</filter>
<radialGradient id="paint0_radial_39_4030" cx="0" cy="0" r="1" gradientUnits="userSpaceOnUse" gradientTransform="translate(30.5065 33.5202) rotate(-90) scale(18.3744 9.36273)">
<stop stop-color="#E95668"/>
<stop offset="1" stop-color="#3C4160"/>
</radialGradient>
<radialGradient id="paint1_radial_39_4030" cx="0" cy="0" r="1" gradientUnits="userSpaceOnUse" gradientTransform="translate(30.5065 33.5202) rotate(-90) scale(18.3744 9.36273)">
<stop stop-color="#E95668"/>
<stop offset="1" stop-color="#3C4160"/>
</radialGradient>
<radialGradient id="paint2_radial_39_4030" cx="0" cy="0" r="1" gradientUnits="userSpaceOnUse" gradientTransform="translate(30.5065 33.5202) rotate(-90) scale(18.3744 9.36273)">
<stop stop-color="#E95668"/>
<stop offset="1" stop-color="#3C4160"/>
</radialGradient>
<radialGradient id="paint3_radial_39_4030" cx="0" cy="0" r="1" gradientUnits="userSpaceOnUse" gradientTransform="translate(30.5065 33.5202) rotate(-90) scale(18.3744 9.36273)">
<stop stop-color="#E95668"/>
<stop offset="1" stop-color="#3C4160"/>
</radialGradient>
<radialGradient id="paint4_radial_39_4030" cx="0" cy="0" r="1" gradientUnits="userSpaceOnUse" gradientTransform="translate(30.5065 33.5202) rotate(-90) scale(18.3744 9.36273)">
<stop stop-color="#E95668"/>
<stop offset="1" stop-color="#3C4160"/>
</radialGradient>
<radialGradient id="paint5_radial_39_4030" cx="0" cy="0" r="1" gradientUnits="userSpaceOnUse" gradientTransform="translate(30.5065 33.5202) rotate(-90) scale(18.3744 9.36273)">
<stop stop-color="#B41C2E"/>
<stop offset="1" stop-color="#111426"/>
</radialGradient>
<radialGradient id="paint6_radial_39_4030" cx="0" cy="0" r="1" gradientUnits="userSpaceOnUse" gradientTransform="translate(30.5065 33.5202) rotate(-90) scale(18.3744 9.36273)">
<stop stop-color="#B41C2E"/>
<stop offset="1" stop-color="#111426"/>
</radialGradient>
<radialGradient id="paint7_radial_39_4030" cx="0" cy="0" r="1" gradientUnits="userSpaceOnUse" gradientTransform="translate(30.5065 33.5202) rotate(-90) scale(18.3744 9.36273)">
<stop stop-color="#B41C2E"/>
<stop offset="1" stop-color="#111426"/>
</radialGradient>
<radialGradient id="paint8_radial_39_4030" cx="0" cy="0" r="1" gradientUnits="userSpaceOnUse" gradientTransform="translate(30.5065 33.5202) rotate(-90) scale(18.3744 9.36273)">
<stop stop-color="#B41C2E"/>
<stop offset="1" stop-color="#111426"/>
</radialGradient>
<radialGradient id="paint9_radial_39_4030" cx="0" cy="0" r="1" gradientUnits="userSpaceOnUse" gradientTransform="translate(30.5065 33.5202) rotate(-90) scale(18.3744 9.36273)">
<stop stop-color="#B41C2E"/>
<stop offset="1" stop-color="#111426"/>
</radialGradient>
<radialGradient id="paint10_radial_39_4030" cx="0" cy="0" r="1" gradientUnits="userSpaceOnUse" gradientTransform="translate(30.5065 33.5202) rotate(-90) scale(18.3744 9.36273)">
<stop stop-color="#B41C2E"/>
<stop offset="1" stop-color="#111426"/>
</radialGradient>
<linearGradient id="paint11_linear_39_4030" x1="52.5867" y1="7.45063" x2="5.81539" y2="53.4504" gradientUnits="userSpaceOnUse">
<stop stop-color="#FE823C"/>
<stop offset="1" stop-color="#DB205A"/>
</linearGradient>
<linearGradient id="paint12_linear_39_4030" x1="52.5867" y1="7.45063" x2="5.81539" y2="53.4504" gradientUnits="userSpaceOnUse">
<stop stop-color="#FE823C"/>
<stop offset="1" stop-color="#DB205A"/>
</linearGradient>
<linearGradient id="paint13_linear_39_4030" x1="52.5867" y1="7.45063" x2="5.81539" y2="53.4504" gradientUnits="userSpaceOnUse">
<stop stop-color="#FE823C"/>
<stop offset="1" stop-color="#FF2065"/>
</linearGradient>
<linearGradient id="paint14_linear_39_4030" x1="52.5867" y1="7.45063" x2="5.81539" y2="53.4504" gradientUnits="userSpaceOnUse">
<stop stop-color="#FE823C"/>
<stop offset="1" stop-color="#FF2065"/>
</linearGradient>
<radialGradient id="paint15_radial_39_4030" cx="0" cy="0" r="1" gradientUnits="userSpaceOnUse" gradientTransform="translate(30.5065 36.1044) rotate(90) scale(18.3744 9.36273)">
<stop stop-color="#B41C2E"/>
<stop offset="1" stop-color="#111426"/>
</radialGradient>
<linearGradient id="paint16_linear_39_4030" x1="21.1971" y1="7.45062" x2="21.1971" y2="67.5692" gradientUnits="userSpaceOnUse">
<stop stop-color="#FE993C"/>
<stop offset="0.0001" stop-color="#FFF0A4"/>
<stop offset="1" stop-color="#FE993C" stop-opacity="0"/>
</linearGradient>
</defs>
</svg>
