<svg width="26" height="26" viewBox="0 0 26 26" fill="none" xmlns="http://www.w3.org/2000/svg">
<path d="M9.89471 22.5044V19.1919C9.89471 18.3463 10.5852 17.6608 11.437 17.6608H14.5507C14.9597 17.6608 15.352 17.8221 15.6413 18.1092C15.9305 18.3964 16.093 18.7858 16.093 19.1919V22.5044C16.0904 22.856 16.2293 23.194 16.4788 23.4435C16.7283 23.693 17.0678 23.8333 17.4219 23.8333H19.5462C20.5383 23.8358 21.4907 23.4464 22.1931 22.7508C22.8956 22.0553 23.2904 21.1109 23.2904 20.1259V10.6891C23.2904 9.89346 22.9351 9.13879 22.3204 8.62835L15.0939 2.89882C13.8368 1.89423 12.0357 1.92667 10.8162 2.97585L3.75463 8.62835C3.11083 9.12374 2.72605 9.88065 2.70703 10.6891V20.1163C2.70703 22.1691 4.38336 23.8333 6.45122 23.8333H8.52701C9.26253 23.8333 9.86028 23.2442 9.86561 22.514L9.89471 22.5044Z" fill="white"/>
</svg>
