<svg width="48" height="18" viewBox="0 0 48 18" fill="none" xmlns="http://www.w3.org/2000/svg">
<path d="M45.6296 3.45753C45.2465 3.07428 44.7917 2.77026 44.2911 2.56284C43.7905 2.35542 43.254 2.24866 42.7121 2.24866C42.1702 2.24866 41.6337 2.35542 41.1331 2.56284C40.6325 2.77026 40.1777 3.07428 39.7946 3.45753L38.9996 4.25253L38.2046 3.45753C37.4308 2.68376 36.3814 2.24906 35.2871 2.24906C34.1928 2.24906 33.1434 2.68376 32.3696 3.45753C31.5958 4.2313 31.1611 5.28075 31.1611 6.37503C31.1611 7.4693 31.5958 8.51876 32.3696 9.29253L33.1646 10.0875L38.9996 15.9225L44.8346 10.0875L45.6296 9.29253C46.0128 8.90946 46.3169 8.45464 46.5243 7.95404C46.7317 7.45345 46.8385 6.91689 46.8385 6.37503C46.8385 5.83316 46.7317 5.2966 46.5243 4.79601C46.3169 4.29542 46.0128 3.84059 45.6296 3.45753V3.45753Z" stroke="#959FB3" stroke-width="2" stroke-linecap="round" stroke-linejoin="round"/>
<path d="M8.25 14.25C11.5637 14.25 14.25 11.5637 14.25 8.25C14.25 4.93629 11.5637 2.25 8.25 2.25C4.93629 2.25 2.25 4.93629 2.25 8.25C2.25 11.5637 4.93629 14.25 8.25 14.25Z" stroke="#959FB3" stroke-width="2" stroke-linecap="round" stroke-linejoin="round"/>
<path d="M15.7498 15.75L12.4873 12.4875" stroke="#959FB3" stroke-width="2" stroke-linecap="round" stroke-linejoin="round"/>
</svg>
