<svg width="35" height="35" viewBox="0 0 35 35" fill="none" xmlns="http://www.w3.org/2000/svg">
<rect width="35" height="35" rx="7" fill="url(#paint0_linear_15_33)"/>
<g clip-path="url(#clip0_15_33)">
<path d="M21.3398 8H13.6602C10.5392 8 8 10.5392 8 13.6602V21.3398C8 24.4608 10.5392 27 13.6602 27H21.3398C24.4608 27 27 24.4608 27 21.3398V13.6602C27 10.5392 24.4608 8 21.3398 8ZM25.0886 21.3398C25.0886 23.4102 23.4102 25.0886 21.3398 25.0886H13.6602C11.5898 25.0886 9.9114 23.4102 9.9114 21.3398V13.6602C9.9114 11.5898 11.5898 9.9114 13.6602 9.9114H21.3398C23.4102 9.9114 25.0886 11.5898 25.0886 13.6602V21.3398Z" fill="white"/>
<path d="M17.5 12.5859C14.7904 12.5859 12.5859 14.7904 12.5859 17.5C12.5859 20.2096 14.7904 22.4141 17.5 22.4141C20.2096 22.4141 22.4141 20.2096 22.4141 17.5C22.4141 14.7904 20.2096 12.5859 17.5 12.5859ZM17.5 20.5027C15.8417 20.5027 14.4973 19.1584 14.4973 17.5C14.4973 15.8417 15.8417 14.4973 17.5 14.4973C19.1584 14.4973 20.5027 15.8417 20.5027 17.5C20.5027 19.1583 19.1583 20.5027 17.5 20.5027Z" fill="white"/>
<path d="M22.4236 13.8004C23.0739 13.8004 23.6011 13.2732 23.6011 12.6229C23.6011 11.9726 23.0739 11.4454 22.4236 11.4454C21.7733 11.4454 21.2461 11.9726 21.2461 12.6229C21.2461 13.2732 21.7733 13.8004 22.4236 13.8004Z" fill="white"/>
</g>
<defs>
<linearGradient id="paint0_linear_15_33" x1="27" y1="2.54597e-07" x2="9" y2="35" gradientUnits="userSpaceOnUse">
<stop stop-color="#7323C0"/>
<stop offset="0.385417" stop-color="#CE2394"/>
<stop offset="1" stop-color="#FF862E"/>
</linearGradient>
<clipPath id="clip0_15_33">
<rect width="19" height="19" fill="white" transform="translate(8 8)"/>
</clipPath>
</defs>
</svg>
