<svg width="12" height="12" viewBox="0 0 12 12" fill="none" xmlns="http://www.w3.org/2000/svg">
<path d="M0 2C0 0.895431 0.895431 0 2 0H3C4.10457 0 5 0.895431 5 2V3C5 4.10457 4.10457 5 3 5H2C0.895431 5 0 4.10457 0 3V2Z" fill="white"/>
<path d="M7 2C7 0.895431 7.89543 0 9 0H10C11.1046 0 12 0.895431 12 2V3C12 4.10457 11.1046 5 10 5H9C7.89543 5 7 4.10457 7 3V2Z" fill="white"/>
<path d="M7 9C7 7.89543 7.89543 7 9 7H10C11.1046 7 12 7.89543 12 9V10C12 11.1046 11.1046 12 10 12H9C7.89543 12 7 11.1046 7 10V9Z" fill="white"/>
<path d="M0 9C0 7.89543 0.895431 7 2 7H3C4.10457 7 5 7.89543 5 9V10C5 11.1046 4.10457 12 3 12H2C0.895431 12 0 11.1046 0 10V9Z" fill="white"/>
</svg>
