<svg width="237" height="68" viewBox="0 0 237 68" fill="none" xmlns="http://www.w3.org/2000/svg">
<path d="M75.5721 51.3835L76.8438 45.7994H71.8494L70.5776 51.3835H71.7916L72.8205 46.863H75.3871L74.3582 51.3835H75.5721Z" fill="#575A6D"/>
<path d="M80.3745 51.5222C82.2243 51.5222 83.311 49.7071 83.311 47.9729C83.311 46.5046 82.4324 45.6607 81.1722 45.6607C80.467 45.6607 79.8889 45.9728 79.4149 46.5393L79.5883 45.7994H78.3744L76.6633 53.5108H77.8772L78.5247 50.5858C78.8946 51.1638 79.5652 51.5222 80.3745 51.5222ZM80.1895 50.447C79.5074 50.447 78.9755 50.1233 78.7212 49.6955L79.1952 47.5336C79.5305 47.0943 80.0623 46.7359 80.6635 46.7359C81.4612 46.7359 82.0393 47.3139 82.0393 48.2157C82.0393 49.3718 81.2878 50.447 80.1895 50.447Z" fill="#575A6D"/>
<path d="M86.7115 51.5222C88.5613 51.5222 89.8908 49.9268 89.8908 48.181C89.8908 46.7127 88.9081 45.6607 87.2086 45.6607C85.3588 45.6607 84.0293 47.2677 84.0293 49.0134C84.0293 50.4817 85.012 51.5222 86.7115 51.5222ZM86.7462 50.447C85.8328 50.447 85.2894 49.869 85.2894 48.9556C85.2894 47.8226 86.0641 46.7359 87.1739 46.7359C88.0873 46.7359 88.6307 47.3139 88.6307 48.2273C88.6307 49.3718 87.856 50.447 86.7462 50.447Z" fill="#575A6D"/>
<path d="M93.3505 45.6607C91.7666 45.6607 90.7607 47.603 90.7607 49.3603C90.7607 50.4701 91.2694 51.5222 92.4371 51.5222C93.0499 51.5222 93.5932 51.2679 94.0326 50.6204L93.3967 53.5108H94.6106L95.2465 50.6089C95.5702 51.1754 96.1714 51.5222 96.8188 51.5222C98.4027 51.5222 99.4086 49.5799 99.4086 47.8226C99.4086 46.7127 98.8999 45.6607 97.7322 45.6607C97.1194 45.6607 96.576 45.9497 96.1367 46.5624L96.7726 43.6721H95.5587L94.9228 46.574C94.5991 46.0075 93.9979 45.6607 93.3505 45.6607ZM93.6048 46.7359C94.1366 46.7359 94.5644 47.0943 94.7262 47.4873L94.2407 49.6955C93.9285 50.1117 93.5123 50.447 93.0152 50.447C92.3331 50.447 92.0209 49.8458 92.0209 49.1406C92.0209 48.0307 92.6452 46.7359 93.6048 46.7359ZM96.5645 50.447C96.0327 50.447 95.6049 50.0886 95.4546 49.6955L95.9402 47.4873C96.2408 47.0711 96.657 46.7359 97.1541 46.7359C97.8362 46.7359 98.1484 47.337 98.1484 48.0423C98.1484 49.1522 97.5241 50.447 96.5645 50.447Z" fill="#575A6D"/>
<path d="M103.12 51.5222C103.825 51.5222 104.565 51.291 105.085 50.9095L104.704 50.0655C104.311 50.3661 103.721 50.528 103.212 50.528C102.079 50.528 101.513 49.8227 101.513 49.1868C101.513 49.129 101.524 49.025 101.524 48.9903H105.848C105.895 48.8169 105.952 48.4354 105.952 48.1348C105.952 46.6318 104.935 45.6607 103.49 45.6607C101.663 45.6607 100.299 47.1983 100.299 49.025C100.299 50.5626 101.386 51.5222 103.12 51.5222ZM101.652 48.1348C101.802 47.3602 102.507 46.6549 103.397 46.6549C104.38 46.6549 104.866 47.2561 104.866 47.9729C104.866 48.0192 104.866 48.1001 104.854 48.1348H101.652Z" fill="#575A6D"/>
<path d="M109.405 51.5222C110.341 51.5222 111.024 51.1176 111.463 50.6551L110.792 49.8458C110.492 50.1927 110.041 50.447 109.521 50.447C108.654 50.447 107.971 49.9268 107.971 48.9556C107.971 47.7764 108.746 46.7359 109.948 46.7359C110.492 46.7359 110.966 46.9902 111.22 47.4295L112.133 46.7359C111.752 46.1 111.035 45.6607 109.937 45.6607C108.133 45.6607 106.734 47.1636 106.734 49.0019C106.734 50.5395 107.81 51.5222 109.405 51.5222Z" fill="#575A6D"/>
<path d="M115.152 51.5222C116.088 51.5222 116.77 51.1176 117.21 50.6551L116.539 49.8458C116.239 50.1927 115.788 50.447 115.267 50.447C114.4 50.447 113.718 49.9268 113.718 48.9556C113.718 47.7764 114.493 46.7359 115.695 46.7359C116.239 46.7359 116.713 46.9902 116.967 47.4295L117.88 46.7359C117.499 46.1 116.782 45.6607 115.684 45.6607C113.88 45.6607 112.481 47.1636 112.481 49.0019C112.481 50.5395 113.556 51.5222 115.152 51.5222Z" fill="#575A6D"/>
<path d="M119.176 51.3835L122.633 47.522L121.789 51.3835H123.003L124.228 45.7994H123.014L119.615 49.5568L120.448 45.7994H119.234L118.008 51.3835H119.176Z" fill="#575A6D"/>
<path d="M127.469 51.5222C129.319 51.5222 130.649 49.9268 130.649 48.181C130.649 46.7127 129.666 45.6607 127.967 45.6607C126.117 45.6607 124.787 47.2677 124.787 49.0134C124.787 50.4817 125.77 51.5222 127.469 51.5222ZM127.504 50.447C126.591 50.447 126.047 49.869 126.047 48.9556C126.047 47.8226 126.822 46.7359 127.932 46.7359C128.845 46.7359 129.389 47.3139 129.389 48.2273C129.389 49.3718 128.614 50.447 127.504 50.447Z" fill="#575A6D"/>
<path d="M132.421 51.3835L132.964 49.0019H135.53L134.987 51.3835H136.201L137.473 45.7994H136.259L135.773 47.9382H133.207L133.692 45.7994H132.478L131.207 51.3835H132.421Z" fill="#575A6D"/>
<path d="M140.911 45.6607C139.05 45.6607 137.974 47.4758 137.974 49.2215C137.974 50.6898 138.841 51.5222 140.113 51.5222C140.818 51.5222 141.396 51.2101 141.859 50.6436L141.697 51.3835H142.911L144.148 45.7994H142.934L142.761 46.5971C142.391 46.0191 141.709 45.6607 140.911 45.6607ZM141.096 46.7359C141.778 46.7359 142.31 47.0711 142.564 47.4989L142.079 49.6609C141.755 50.1002 141.211 50.447 140.622 50.447C139.813 50.447 139.246 49.8805 139.246 48.9787C139.246 47.8111 139.998 46.7359 141.096 46.7359Z" fill="#575A6D"/>
<path d="M143.871 51.5222C145.097 51.5222 145.975 50.6783 146.634 48.655L147.224 46.863H149.247L148.265 51.3835H149.478L150.704 45.7994H146.392L145.455 48.5163C144.946 49.9846 144.565 50.528 144.091 50.528L143.871 51.5222Z" fill="#575A6D"/>
<path d="M152.28 45.7994L151.055 51.3835H154.361C155.703 51.3835 156.489 50.4123 156.489 49.3718C156.489 48.4585 155.818 47.8226 154.697 47.8226H153.043L153.494 45.7994H152.28ZM154.477 48.8863C154.974 48.8863 155.252 49.1175 155.252 49.499C155.252 49.9615 154.905 50.3199 154.373 50.3199H152.5L152.812 48.8863H154.477Z" fill="#575A6D"/>
<path d="M158.512 51.3835L159.056 49.0019H161.622L161.079 51.3835H162.293L163.565 45.7994H162.351L161.865 47.9382H159.299L159.784 45.7994H158.57L157.298 51.3835H158.512Z" fill="#575A6D"/>
<path d="M170.957 51.3835L172.182 45.7994H170.968L169.743 51.3835H170.957ZM165.084 45.7994L163.858 51.3835H167.165C168.506 51.3835 169.292 50.4123 169.292 49.3718C169.292 48.4585 168.621 47.8226 167.5 47.8226H165.847L166.298 45.7994H165.084ZM167.28 48.8863C167.777 48.8863 168.055 49.1175 168.055 49.499C168.055 49.9615 167.708 50.3199 167.176 50.3199H165.303L165.615 48.8863H167.28Z" fill="#575A6D"/>
<path d="M175.57 51.5222C176.275 51.5222 177.015 51.291 177.535 50.9095L177.154 50.0655C176.761 50.3661 176.171 50.528 175.662 50.528C174.529 50.528 173.963 49.8227 173.963 49.1868C173.963 49.129 173.974 49.025 173.974 48.9903H178.298C178.344 48.8169 178.402 48.4354 178.402 48.1348C178.402 46.6318 177.385 45.6607 175.94 45.6607C174.113 45.6607 172.749 47.1983 172.749 49.025C172.749 50.5626 173.836 51.5222 175.57 51.5222ZM174.101 48.1348C174.252 47.3602 174.957 46.6549 175.847 46.6549C176.83 46.6549 177.315 47.2561 177.315 47.9729C177.315 48.0192 177.315 48.1001 177.304 48.1348H174.101Z" fill="#575A6D"/>
<path d="M184.824 51.5222C185.761 51.5222 186.443 51.1176 186.882 50.6551L186.212 49.8458C185.911 50.1927 185.46 50.447 184.94 50.447C184.073 50.447 183.391 49.9268 183.391 48.9556C183.391 47.7764 184.165 46.7359 185.368 46.7359C185.911 46.7359 186.385 46.9902 186.639 47.4295L187.553 46.7359C187.171 46.1 186.454 45.6607 185.356 45.6607C183.552 45.6607 182.154 47.1636 182.154 49.0019C182.154 50.5395 183.229 51.5222 184.824 51.5222Z" fill="#575A6D"/>
<path d="M190.918 51.5222C192.768 51.5222 193.854 49.7071 193.854 47.9729C193.854 46.5046 192.976 45.6607 191.716 45.6607C191.01 45.6607 190.432 45.9728 189.958 46.5393L190.132 45.7994H188.918L187.207 53.5108H188.421L189.068 50.5858C189.438 51.1638 190.109 51.5222 190.918 51.5222ZM190.733 50.447C190.051 50.447 189.519 50.1233 189.265 49.6955L189.739 47.5336C190.074 47.0943 190.606 46.7359 191.207 46.7359C192.005 46.7359 192.583 47.3139 192.583 48.2157C192.583 49.3718 191.831 50.447 190.733 50.447Z" fill="#575A6D"/>
<path d="M197.405 51.5222C198.11 51.5222 198.85 51.291 199.371 50.9095L198.989 50.0655C198.596 50.3661 198.006 50.528 197.498 50.528C196.365 50.528 195.798 49.8227 195.798 49.1868C195.798 49.129 195.81 49.025 195.81 48.9903H200.134C200.18 48.8169 200.238 48.4354 200.238 48.1348C200.238 46.6318 199.22 45.6607 197.775 45.6607C195.948 45.6607 194.584 47.1983 194.584 49.025C194.584 50.5626 195.671 51.5222 197.405 51.5222ZM195.937 48.1348C196.087 47.3602 196.792 46.6549 197.683 46.6549C198.665 46.6549 199.151 47.2561 199.151 47.9729C199.151 48.0192 199.151 48.1001 199.139 48.1348H195.937Z" fill="#575A6D"/>
<path d="M199.921 52.8055H201.124L201.436 51.3835H205.193L204.881 52.8055H206.095L206.638 50.3199H206.026L207.02 45.7994H202.708L201.771 48.5163C201.262 49.9846 200.916 50.262 200.442 50.3777L199.921 52.8055ZM203.54 46.863H205.563L204.812 50.3199H201.852C202.326 49.973 202.696 49.4296 202.95 48.655L203.54 46.863Z" fill="#575A6D"/>
<path d="M210.295 51.5222C211.232 51.5222 211.914 51.1176 212.353 50.6551L211.683 49.8458C211.382 50.1927 210.931 50.447 210.411 50.447C209.544 50.447 208.862 49.9268 208.862 48.9556C208.862 47.7764 209.636 46.7359 210.839 46.7359C211.382 46.7359 211.856 46.9902 212.11 47.4295L213.024 46.7359C212.642 46.1 211.925 45.6607 210.827 45.6607C209.023 45.6607 207.624 47.1636 207.624 49.0019C207.624 50.5395 208.7 51.5222 210.295 51.5222Z" fill="#575A6D"/>
<path d="M215.383 51.3835L216.366 46.863H217.973L218.215 45.7994H213.799L213.556 46.863H215.152L214.169 51.3835H215.383Z" fill="#575A6D"/>
<path d="M221.649 51.3835C222.759 51.3835 223.418 50.5742 223.418 49.7071C223.418 49.0828 223.082 48.7475 222.643 48.551C223.36 48.3891 223.892 47.8342 223.892 47.0133C223.892 46.2965 223.371 45.7994 222.481 45.7994H219.209L217.984 51.3835H221.649ZM219.429 50.3199L219.706 49.0597H221.533C221.972 49.0597 222.215 49.2678 222.215 49.6031C222.215 50.0077 221.915 50.3199 221.441 50.3199H219.429ZM219.938 47.996L220.18 46.863H221.996C222.389 46.863 222.608 47.048 222.608 47.3486C222.608 47.7186 222.331 47.996 221.915 47.996H219.938Z" fill="#575A6D"/>
<path d="M227.745 45.6607C225.883 45.6607 224.808 47.4758 224.808 49.2215C224.808 50.6898 225.675 51.5222 226.947 51.5222C227.652 51.5222 228.23 51.2101 228.693 50.6436L228.531 51.3835H229.745L230.982 45.7994H229.768L229.594 46.5971C229.224 46.0191 228.542 45.6607 227.745 45.6607ZM227.93 46.7359C228.612 46.7359 229.144 47.0711 229.398 47.4989L228.912 49.6609C228.589 50.1002 228.045 50.447 227.456 50.447C226.646 50.447 226.08 49.8805 226.08 48.9787C226.08 47.8111 226.831 46.7359 227.93 46.7359Z" fill="#575A6D"/>
<path d="M93.3605 62.0083C92.4471 62.0083 91.9038 61.4302 91.9038 60.5169C91.9038 59.3839 92.6784 58.2971 93.7882 58.2971C94.7016 58.2971 95.245 58.8752 95.245 59.7885C95.245 60.9331 94.4704 62.0083 93.3605 62.0083ZM93.3258 63.0835C95.1756 63.0835 96.5051 61.488 96.5051 59.7423C96.5051 58.274 95.7421 57.2219 94.2507 57.2219C93.4992 57.2219 92.794 57.5919 92.2159 58.2046C92.5165 57.5225 93.2333 56.8635 94.6091 56.7132C95.5571 56.6092 97.0716 56.3202 97.3144 55.2334H96.1236C96.0774 55.4415 95.719 55.5802 94.771 55.719C93.0483 55.9271 92.0772 56.6901 91.291 58.1237C91.0251 58.6093 90.6436 59.6614 90.6436 60.5747C90.6436 62.043 91.6263 63.0835 93.3258 63.0835Z" fill="#575A6D"/>
<path d="M99.9984 63.0835C101.848 63.0835 103.178 61.488 103.178 59.7423C103.178 58.274 102.195 57.2219 100.495 57.2219C98.6457 57.2219 97.3161 58.8289 97.3161 60.5747C97.3161 62.043 98.2989 63.0835 99.9984 63.0835ZM100.033 62.0083C99.1197 62.0083 98.5763 61.4302 98.5763 60.5169C98.5763 59.3839 99.3509 58.2971 100.461 58.2971C101.374 58.2971 101.918 58.8752 101.918 59.7885C101.918 60.9331 101.143 62.0083 100.033 62.0083Z" fill="#575A6D"/>
<path d="M106.973 63.0835C108.822 63.0835 109.909 61.2684 109.909 59.5342C109.909 58.0659 109.031 57.2219 107.77 57.2219C107.065 57.2219 106.487 57.5341 106.013 58.1006L106.186 57.3607H104.973L103.261 65.072H104.475L105.123 62.147C105.493 62.7251 106.163 63.0835 106.973 63.0835ZM106.788 62.0083C106.106 62.0083 105.574 61.6846 105.319 61.2568L105.793 59.0949C106.129 58.6555 106.66 58.2971 107.262 58.2971C108.059 58.2971 108.637 58.8752 108.637 59.777C108.637 60.9331 107.886 62.0083 106.788 62.0083Z" fill="#575A6D"/>
<path d="M111.645 57.3607L110.419 62.9448H113.726C115.067 62.9448 115.853 61.9736 115.853 60.9331C115.853 60.0198 115.183 59.3839 114.061 59.3839H112.408L112.859 57.3607H111.645ZM113.841 60.4475C114.339 60.4475 114.616 60.6787 114.616 61.0603C114.616 61.5227 114.269 61.8811 113.737 61.8811H111.864L112.177 60.4475H113.841Z" fill="#575A6D"/>
<path d="M119.588 62.0083C118.675 62.0083 118.131 61.4302 118.131 60.5169C118.131 59.3839 118.906 58.2971 120.016 58.2971C120.929 58.2971 121.472 58.8752 121.472 59.7885C121.472 60.9331 120.698 62.0083 119.588 62.0083ZM119.553 63.0835C121.403 63.0835 122.733 61.488 122.733 59.7423C122.733 58.274 121.969 57.2219 120.478 57.2219C119.727 57.2219 119.021 57.5919 118.443 58.2046C118.744 57.5225 119.461 56.8635 120.836 56.7132C121.784 56.6092 123.299 56.3202 123.542 55.2334H122.351C122.305 55.4415 121.946 55.5802 120.998 55.719C119.276 55.9271 118.305 56.6901 117.518 58.1237C117.252 58.6093 116.871 59.6614 116.871 60.5747C116.871 62.043 117.854 63.0835 119.553 63.0835Z" fill="#575A6D"/>
<path d="M130.434 62.9448L131.66 57.3607H130.446L129.22 62.9448H130.434ZM124.561 57.3607L123.335 62.9448H126.642C127.983 62.9448 128.769 61.9736 128.769 60.9331C128.769 60.0198 128.099 59.3839 126.977 59.3839H125.324L125.775 57.3607H124.561ZM126.758 60.4475C127.255 60.4475 127.532 60.6787 127.532 61.0603C127.532 61.5227 127.185 61.8811 126.654 61.8811H124.781L125.093 60.4475H126.758Z" fill="#575A6D"/>
<path d="M137.866 63.0835C138.803 63.0835 139.485 62.6789 139.924 62.2164L139.253 61.4071C138.953 61.7539 138.502 62.0083 137.982 62.0083C137.115 62.0083 136.432 61.488 136.432 60.5169C136.432 59.3376 137.207 58.2971 138.409 58.2971C138.953 58.2971 139.427 58.5515 139.681 58.9908L140.595 58.2971C140.213 57.6613 139.496 57.2219 138.398 57.2219C136.594 57.2219 135.195 58.7249 135.195 60.5631C135.195 62.1008 136.271 63.0835 137.866 63.0835Z" fill="#575A6D"/>
<path d="M147.357 62.9448C148.467 62.9448 149.126 62.1355 149.126 61.2684C149.126 60.6441 148.79 60.3088 148.351 60.1122C149.068 59.9504 149.6 59.3954 149.6 58.5746C149.6 57.8578 149.079 57.3607 148.189 57.3607H144.917L143.692 62.9448H147.357ZM145.137 61.8811L145.414 60.6209H147.241C147.68 60.6209 147.923 60.829 147.923 61.1643C147.923 61.569 147.623 61.8811 147.149 61.8811H145.137ZM145.646 59.5573L145.888 58.4243H147.704C148.097 58.4243 148.316 58.6093 148.316 58.9099C148.316 59.2798 148.039 59.5573 147.623 59.5573H145.646Z" fill="#575A6D"/>
<path d="M153.545 63.0835C155.395 63.0835 156.482 61.2684 156.482 59.5342C156.482 58.0659 155.603 57.2219 154.343 57.2219C153.638 57.2219 153.06 57.5341 152.586 58.1006L152.759 57.3607H151.545L149.834 65.072H151.048L151.695 62.147C152.065 62.7251 152.736 63.0835 153.545 63.0835ZM153.36 62.0083C152.678 62.0083 152.146 61.6846 151.892 61.2568L152.366 59.0949C152.701 58.6555 153.233 58.2971 153.834 58.2971C154.632 58.2971 155.21 58.8752 155.21 59.777C155.21 60.9331 154.458 62.0083 153.36 62.0083Z" fill="#575A6D"/>
<path d="M160.032 63.0835C160.738 63.0835 161.478 62.8523 161.998 62.4707L161.616 61.6268C161.223 61.9274 160.634 62.0892 160.125 62.0892C158.992 62.0892 158.425 61.384 158.425 60.7481C158.425 60.6903 158.437 60.5863 158.437 60.5516H162.761C162.807 60.3782 162.865 59.9966 162.865 59.696C162.865 58.1931 161.848 57.2219 160.402 57.2219C158.576 57.2219 157.211 58.7596 157.211 60.5863C157.211 62.1239 158.298 63.0835 160.032 63.0835ZM158.564 59.696C158.714 58.9214 159.42 58.2162 160.31 58.2162C161.293 58.2162 161.778 58.8174 161.778 59.5342C161.778 59.5804 161.778 59.6614 161.767 59.696H158.564Z" fill="#575A6D"/>
<path d="M162.549 64.3668H163.751L164.063 62.9448H167.821L167.508 64.3668H168.722L169.266 61.8811H168.653L169.647 57.3607H165.335L164.398 60.0776C163.89 61.5458 163.543 61.8233 163.069 61.9389L162.549 64.3668ZM166.167 58.4243H168.191L167.439 61.8811H164.479C164.953 61.5343 165.323 60.9909 165.578 60.2163L166.167 58.4243Z" fill="#575A6D"/>
<path d="M171.2 62.9448L174.657 59.0833L173.813 62.9448H175.027L176.252 57.3607H175.038L171.639 61.1181L172.472 57.3607H171.258L170.032 62.9448H171.2Z" fill="#575A6D"/>
<path d="M178.834 62.9448L179.817 58.4243H181.424L181.667 57.3607H177.251L177.008 58.4243H178.603L177.62 62.9448H178.834Z" fill="#575A6D"/>
<path d="M184.476 63.0835C185.181 63.0835 185.921 62.8523 186.441 62.4707L186.06 61.6268C185.667 61.9274 185.077 62.0892 184.568 62.0892C183.435 62.0892 182.869 61.384 182.869 60.7481C182.869 60.6903 182.88 60.5863 182.88 60.5516H187.204C187.251 60.3782 187.308 59.9966 187.308 59.696C187.308 58.1931 186.291 57.2219 184.846 57.2219C183.019 57.2219 181.655 58.7596 181.655 60.5863C181.655 62.1239 182.742 63.0835 184.476 63.0835ZM183.008 59.696C183.158 58.9214 183.863 58.2162 184.753 58.2162C185.736 58.2162 186.222 58.8174 186.222 59.5342C186.222 59.5804 186.222 59.6614 186.21 59.696H183.008Z" fill="#575A6D"/>
<path d="M187.258 63.0835C188.484 63.0835 189.362 62.2395 190.021 60.2163L190.611 58.4243H192.634L191.651 62.9448H192.865L194.091 57.3607H189.778L188.842 60.0776C188.333 61.5458 187.952 62.0892 187.478 62.0892L187.258 63.0835Z" fill="#575A6D"/>
<path d="M195.69 62.9448L197.355 60.9215H198.581L198.141 62.9448H199.355L200.581 57.3607H197.263C195.922 57.3607 195.135 58.3318 195.135 59.3723C195.135 60.0891 195.54 60.5747 196.13 60.7944L194.245 62.9448H195.69ZM197.147 59.8579C196.65 59.8579 196.372 59.6267 196.372 59.2452C196.372 58.7827 196.719 58.4243 197.251 58.4243H199.124L198.812 59.8579H197.147Z" fill="#575A6D"/>
<path d="M207.177 62.9448L208.403 57.3607H206.749L204.425 60.9678L203.674 57.3607H202.148L200.922 62.9448H202.136L202.98 59.0602L203.813 62.9448H204.298L206.807 59.0602L205.963 62.9448H207.177Z" fill="#575A6D"/>
<path d="M209.914 62.9448L213.371 59.0833L212.527 62.9448H213.741L214.967 57.3607H213.753L210.354 61.1181L211.186 57.3607H209.972L208.747 62.9448H209.914Z" fill="#575A6D"/>
<path d="M98.5866 12.373L93.8279 39.5651H86.9921L90.867 18.2646H83.5448L79.6654 39.5651H72.8296L77.626 12.373H98.5866Z" fill="#101426"/>
<path d="M116.611 39.5651H97.6524L102.449 12.373H121.408L120.35 18.2646H108.189L107.321 23.3632H117.367L116.309 29.2548H106.263L105.508 33.6735H117.669L116.611 39.5651Z" fill="#101426"/>
<path d="M129.006 40.0939C125.406 40.0939 122.913 39.3133 121.528 37.7523C120.571 36.6445 120.093 35.0961 120.093 33.107C120.093 32.251 120.181 31.332 120.357 30.35L121.906 21.6637C123.039 15.2936 127.13 12.1086 134.18 12.1086C137.101 12.1086 139.316 12.7381 140.827 13.997C142.338 15.2307 143.093 16.9302 143.093 19.0955C143.093 20.1026 142.942 21.1097 142.64 22.1169C142.363 23.0988 142.086 23.8289 141.809 24.3073L141.393 25.0627H134.709C135.54 24.1059 135.955 22.7463 135.955 20.9838C135.955 20.0523 135.716 19.3221 135.237 18.7934C134.759 18.2395 134.054 17.9625 133.123 17.9625C130.58 17.9625 129.069 19.3725 128.591 22.1924L127.269 29.8213C127.143 30.4759 127.08 31.1179 127.08 31.7474C127.08 33.4091 128.074 34.24 130.063 34.24C132.455 34.24 133.89 32.893 134.369 30.199H141.167L140.978 31.2942C139.971 37.1606 135.98 40.0939 129.006 40.0939Z" fill="#101426"/>
<path d="M169.321 18.2646H160.03L156.291 39.5651H149.455L153.194 18.2646H143.866L144.923 12.373H170.378L169.321 18.2646Z" fill="#101426"/>
<path d="M216.445 12.373L207.796 26.0824L211.649 39.5651H204.473L201.64 29.5947H198.657L196.882 39.5651H190.084L194.88 12.373H201.678L199.677 23.7031H202.094L209.269 12.373H216.445Z" fill="#101426"/>
<path d="M222.913 40.0939C219.312 40.0939 216.82 39.3133 215.435 37.7523C214.478 36.6445 214 35.0961 214 33.107C214 32.251 214.088 31.332 214.264 30.35L215.812 21.6637C216.945 15.2936 221.037 12.1086 228.087 12.1086C231.007 12.1086 233.223 12.7381 234.734 13.997C236.244 15.2307 237 16.9302 237 19.0955C237 20.1026 236.849 21.1097 236.546 22.1169C236.269 23.0988 235.992 23.8289 235.716 24.3073L235.3 25.0627H228.615C229.446 24.1059 229.862 22.7463 229.862 20.9838C229.862 20.0523 229.622 19.3221 229.144 18.7934C228.666 18.2395 227.961 17.9625 227.029 17.9625C224.486 17.9625 222.976 19.3725 222.497 22.1924L221.175 29.8213C221.049 30.4759 220.986 31.1179 220.986 31.7474C220.986 33.4091 221.981 34.24 223.97 34.24C226.362 34.24 227.797 32.893 228.275 30.199H235.073L234.885 31.2942C233.878 37.1606 229.887 40.0939 222.913 40.0939Z" fill="#101426"/>
<path d="M182.286 12.1086C185.887 12.1086 188.379 12.8892 189.764 14.4502C190.721 15.558 191.199 17.1065 191.199 19.0955C191.199 19.9516 191.111 20.8705 190.935 21.8525L189.386 30.5389C188.253 36.9089 184.162 40.0939 177.112 40.0939C174.191 40.0939 171.976 39.4644 170.465 38.2055C168.954 36.9718 168.199 35.2723 168.199 33.107C168.199 32.0999 168.35 31.0928 168.652 30.0856C168.929 29.1037 169.206 28.3736 169.483 27.8952L169.899 27.1398H176.583C175.753 28.0966 175.337 29.4562 175.337 31.2187C175.337 32.1502 175.576 32.8804 176.055 33.4091C176.533 33.963 177.238 34.24 178.17 34.24C180.522 34.24 181.991 33.0338 182.576 30.6213C182.673 30.225 182.841 29.8462 183.106 29.5356H179.173L180.501 23.6658H183.767C183.892 23.0112 184.212 21.0846 184.212 20.4551C184.212 18.7934 183.218 17.9625 181.229 17.9625C178.837 17.9625 177.402 19.3095 176.923 22.0035H170.125L170.314 20.9083C171.321 15.0419 175.312 12.1086 182.286 12.1086Z" fill="#101426"/>
<path opacity="0.4" fill-rule="evenodd" clip-rule="evenodd" d="M80.5964 34.4554C78.3096 34.5136 76.0117 34.5668 73.7031 34.6147L77.6263 12.3733H98.5869L94.798 34.0238C92.5309 34.104 90.2513 34.1792 87.9595 34.2492L90.8673 18.2649H83.5451L80.5964 34.4554ZM105.52 33.6027C103.246 33.7009 100.957 33.794 98.6552 33.8819L102.449 12.3733H121.408L120.351 18.2649H108.19L107.321 23.3634H117.367L116.31 29.255H106.264L105.52 33.6027ZM157.93 30.2303C155.641 30.4312 153.328 30.6262 150.991 30.8154L153.194 18.2649H143.866L144.924 12.3733H170.378L169.321 18.2649H160.03L157.93 30.2303ZM208.996 24.1822C203.709 25.0089 198.164 25.7965 192.381 26.542L194.88 12.3733H201.678L199.677 23.7033H202.094L209.27 12.3733H216.445L208.996 24.1822ZM222.558 21.8704C220.284 22.2932 217.949 22.7078 215.554 23.1141L215.813 21.6639C216.946 15.2939 221.037 12.1089 228.087 12.1089C231.008 12.1089 233.223 12.7383 234.734 13.9972C236.195 15.1905 236.95 16.8196 236.997 18.8844C234.698 19.4152 232.308 19.936 229.833 20.4463C229.756 19.7669 229.527 19.216 229.144 18.7936C228.666 18.2397 227.961 17.9627 227.029 17.9627C224.585 17.9627 223.095 19.2653 222.558 21.8704ZM190.046 26.8391C186.611 27.2705 183.095 27.6871 179.501 28.0885L180.501 23.666H183.767C183.893 23.0114 184.213 21.0848 184.213 20.4554C184.213 18.7936 183.218 17.9627 181.229 17.9627C178.837 17.9627 177.402 19.3098 176.924 22.0038H170.126L170.314 20.9086C171.322 15.0421 175.312 12.1089 182.286 12.1089C185.887 12.1089 188.38 12.8894 189.764 14.4504C190.721 15.5583 191.199 17.1067 191.199 19.0957C191.199 19.9518 191.111 20.8708 190.935 21.8527L190.046 26.8391ZM175.781 28.4955C173.524 28.7374 171.238 28.9733 168.924 29.2031C169.111 28.6532 169.297 28.2173 169.484 27.8954L169.899 27.1401H176.584C176.248 27.5263 175.981 27.9781 175.781 28.4955ZM140.926 31.5833C138.565 31.7526 136.182 31.9161 133.779 32.0736C134.044 31.5454 134.241 30.9206 134.369 30.1992H141.167L140.978 31.2944C140.962 31.3915 140.944 31.4878 140.926 31.5833ZM127.158 32.4891C124.822 32.6293 122.467 32.7639 120.095 32.8928C120.109 32.0982 120.196 31.2507 120.358 30.3503L121.906 21.6639C123.039 15.2939 127.131 12.1089 134.18 12.1089C137.101 12.1089 139.317 12.7383 140.827 13.9972C142.338 15.2309 143.093 16.9305 143.093 19.0958C143.093 20.1029 142.942 21.11 142.64 22.1171C142.363 23.099 142.086 23.8292 141.809 24.3076L141.394 25.0629H134.709C135.54 24.1062 135.955 22.7465 135.955 20.9841C135.955 20.0525 135.716 19.3224 135.238 18.7936C134.759 18.2397 134.054 17.9627 133.123 17.9627C130.58 17.9627 129.069 19.3727 128.591 22.1926L127.269 29.8215C127.143 30.4762 127.08 31.1182 127.08 31.7476C127.08 32.0165 127.106 32.2637 127.158 32.4891Z" fill="url(#paint0_linear_39_2348)"/>
<path d="M30.4919 12.4171C33.4158 12.4171 36.2862 13.0502 38.8977 14.2425V13.3834C38.8977 12.6005 38.7802 11.8441 38.5654 11.1272V3.44266L35.5456 0L32.7887 2.25917L34.951 4.72422V6.5008C33.6575 5.71499 32.1291 5.25849 30.4918 5.25849C28.8545 5.25849 27.3261 5.71499 26.0325 6.5008V4.72433L28.1948 2.25917L25.4379 0L22.4183 3.44266V11.1272C22.2034 11.8441 22.086 12.6005 22.086 13.3834V14.2425C24.6975 13.0502 27.568 12.4171 30.4919 12.4171Z" fill="url(#paint1_radial_39_2348)"/>
<path d="M30.4974 31.6147V31.6216L30.5048 31.6253C30.5109 31.6218 30.5047 31.6185 30.499 31.6155L30.4974 31.6147Z" fill="url(#paint2_radial_39_2348)"/>
<path d="M30.4974 31.6147C30.4922 31.6119 30.4885 31.6093 30.4974 31.607V31.6147Z" fill="url(#paint3_radial_39_2348)"/>
<path d="M30.4974 31.6025C30.5083 31.5995 30.5202 31.6009 30.4974 31.607V31.6025Z" fill="url(#paint4_radial_39_2348)"/>
<path fill-rule="evenodd" clip-rule="evenodd" d="M27.4784 34.8121L27.3001 34.6333L8.58002 34.6819C8.37926 34.6819 8.18643 34.7602 8.04254 34.9002L2.76213 40.0377C2.46458 40.3272 1.9912 40.329 1.69144 40.0418L0.237538 38.6488C-0.0772576 38.3472 -0.0794608 37.8448 0.232677 37.5404L7.04979 30.8934C7.19374 30.753 7.38683 30.6745 7.58787 30.6745L23.3125 30.6354L7.51934 14.8019C7.42326 14.7055 7.36931 14.575 7.36931 14.439V7.70751C7.36931 7.42373 7.59936 7.19368 7.88314 7.19368H10.5625C10.8463 7.19368 11.0763 7.42373 11.0763 7.70751V12.3765C11.0763 12.5125 11.1303 12.643 11.2264 12.7394L29.0605 30.6212L30.4974 30.6176V30.6973C30.5324 30.6759 30.5372 30.6454 30.5312 30.6177L31.6704 30.6205L49.5515 12.7394C49.6478 12.6431 49.702 12.5124 49.702 12.3761V7.70751C49.702 7.42373 49.932 7.19368 50.2158 7.19368H52.8436C53.1274 7.19368 53.3575 7.42373 53.3575 7.70751V14.439C53.3575 14.575 53.3035 14.7055 53.2074 14.8019L37.415 30.6348L53.3957 30.6745C53.5967 30.6745 53.7898 30.753 53.9338 30.8934L60.7509 37.5404C61.063 37.8448 61.0608 38.3472 60.746 38.6488L59.2921 40.0418C58.9924 40.329 58.519 40.3272 58.2214 40.0377L52.941 34.9002C52.7971 34.7602 52.6043 34.6819 52.4036 34.6819L33.4274 34.6326L33.2483 34.8121L33.2482 34.8123L33.2483 34.8125L53.2074 54.8227C53.3035 54.919 53.3575 55.0495 53.3575 55.1855V61.917C53.3575 62.2008 53.1274 62.4309 52.8436 62.4309H50.2158C49.932 62.4309 49.702 62.2008 49.702 61.917V57.2484C49.702 57.1122 49.6478 56.9815 49.5515 56.8851L30.3634 37.697L11.2264 56.8852C11.1303 56.9815 11.0763 57.112 11.0763 57.248V61.917C11.0763 62.2008 10.8463 62.4309 10.5625 62.4309H7.88314C7.59936 62.4309 7.36931 62.2008 7.36931 61.917V55.1855C7.36931 55.0495 7.42326 54.919 7.51934 54.8227L27.4784 34.8125V34.8121ZM30.4974 31.7146V31.6922C30.548 31.6779 30.524 31.6649 30.5027 31.6533L30.4974 31.6504V31.628C30.5008 31.6271 30.5032 31.6261 30.5048 31.6253C30.6041 31.6736 30.5802 31.6158 30.5411 31.5211C30.5268 31.4864 30.5105 31.4469 30.4974 31.4057V31.2993L30.4984 31.2931C30.5053 31.2504 30.5125 31.206 30.4974 31.1603V31.2993C30.4914 31.3361 30.4865 31.3717 30.4974 31.4057V31.6025C30.4873 31.6053 30.4779 31.6117 30.4974 31.6216V31.628C30.4727 31.6347 30.4826 31.6422 30.4974 31.6504V31.6922C30.492 31.6997 30.4947 31.7071 30.4974 31.7146V31.7376C30.5029 31.73 30.5001 31.7222 30.4974 31.7146Z" fill="url(#paint5_radial_39_2348)"/>
<mask id="mask0_39_2348" style="mask-type:alpha" maskUnits="userSpaceOnUse" x="0" y="0" width="61" height="63">
<path d="M38.8977 13.3834V14.2425C36.2862 13.0502 33.4158 12.4171 30.4919 12.4171C27.568 12.4171 24.6975 13.0502 22.086 14.2425V13.3834C22.086 12.6005 22.2034 11.8441 22.4183 11.1272V3.44266L25.4379 0L28.1948 2.25917L26.0325 4.72433V6.5008C27.3261 5.71499 28.8545 5.25849 30.4918 5.25849C32.1291 5.25849 33.6575 5.71499 34.951 6.5008V4.72422L32.7887 2.25917L35.5456 0L38.5654 3.44266V11.1272C38.7802 11.8441 38.8977 12.6005 38.8977 13.3834Z" fill="url(#paint6_radial_39_2348)"/>
<path fill-rule="evenodd" clip-rule="evenodd" d="M30.4974 32.9778C30.4974 32.9778 30.4562 33.3114 30.4974 33.5349V34.625L8.58002 34.6819C8.37926 34.6819 8.18643 34.7602 8.04254 34.9002L2.76213 40.0377C2.46458 40.3272 1.9912 40.329 1.69144 40.0418L0.237538 38.6488C-0.0772576 38.3472 -0.0794608 37.8448 0.232677 37.5404L7.04979 30.8934C7.19374 30.753 7.38683 30.6745 7.58787 30.6745L30.4974 30.6176V31.1168V30.6973C30.5784 30.6479 30.4974 30.5496 30.4974 30.5496V30.2082C30.6063 30.1721 30.4974 30.1559 30.4974 30.1559C30.4974 30.1559 30.5589 30.3398 30.4974 30.4407V30.5616C30.4974 30.5616 30.4258 30.4889 30.4974 30.5037C30.5727 30.261 30.6467 30.1628 30.4974 30.1559V31.1603V30.6176L53.3957 30.6745C53.5967 30.6745 53.7898 30.753 53.9338 30.8934L60.7509 37.5404C61.063 37.8448 61.0608 38.3472 60.746 38.6488L59.2921 40.0418C58.9924 40.329 58.519 40.3272 58.2214 40.0377L52.941 34.9002C52.7971 34.7602 52.6043 34.6819 52.4036 34.6819L30.4974 34.625V33.2505V31.4919V32.8965V32.1978C30.4474 32.2591 30.579 32.3083 30.4974 32.3371C30.4918 32.394 30.5014 32.4525 30.4974 32.5127C30.5315 32.5195 30.5635 32.6134 30.4974 32.9778V33.0245C30.4974 34.625 30.4974 34.625 30.4974 33.0398V33.1189C30.5029 33.0736 30.4943 33.0266 30.4974 32.9778C30.5737 32.9579 30.4226 32.9334 30.4974 32.9082V32.9372C30.5193 32.9511 30.4683 32.9647 30.4974 32.9778ZM30.4974 31.7376C30.5084 31.7224 30.4866 31.7072 30.4974 31.6922C30.5891 31.6663 30.4358 31.6446 30.4974 31.628C30.5281 31.6197 30.4759 31.6126 30.4974 31.607C30.5413 31.5953 30.4568 31.601 30.4974 31.6216C30.6437 31.6959 30.5472 31.5621 30.4974 31.4057C30.4734 31.3305 30.5263 31.2479 30.4974 31.1603V31.6922V31.7376Z" fill="url(#paint7_radial_39_2348)"/>
<path d="M30.4974 33.1189V33.9293C30.4974 33.9293 30.5232 33.6751 30.4974 33.5349V33.1189Z" fill="url(#paint8_radial_39_2348)"/>
<path d="M30.4974 32.8965V33.6948V33.2505V32.8965Z" fill="url(#paint9_radial_39_2348)"/>
<path d="M49.5515 56.8851C49.6478 56.9815 49.702 57.1122 49.702 57.2484V61.917C49.702 62.2008 49.932 62.4309 50.2158 62.4309H52.8436C53.1274 62.4309 53.3575 62.2008 53.3575 61.917V55.1855C53.3575 55.0495 53.3035 54.919 53.2074 54.8227L33.2482 34.8123C33.2867 34.7737 33.2867 34.7113 33.2482 34.6727L30.5321 31.9567C30.4822 31.9068 30.3986 31.9179 30.3634 31.979C30.3558 31.9285 30.2941 31.9079 30.2576 31.9437L27.4792 34.6733C27.4405 34.7114 27.4402 34.7738 27.4786 34.8123L7.51934 54.8227C7.42326 54.919 7.36931 55.0495 7.36931 55.1855V61.917C7.36931 62.2008 7.59936 62.4309 7.88314 62.4309H10.5625C10.8463 62.4309 11.0763 62.2008 11.0763 61.917V57.248C11.0763 57.112 11.1303 56.9815 11.2264 56.8852L30.3634 37.697L49.5515 56.8851Z" fill="url(#paint10_radial_39_2348)"/>
<path d="M49.5515 12.7394C49.6478 12.6431 49.702 12.5124 49.702 12.3761V7.70751C49.702 7.42373 49.932 7.19368 50.2158 7.19368H52.8436C53.1274 7.19368 53.3575 7.42373 53.3575 7.70751V14.439C53.3575 14.575 53.3035 14.7055 53.2074 14.8019L33.2482 34.8123C33.2867 34.8508 33.2867 34.9133 33.2482 34.9518L30.5321 37.6679C30.4822 37.7178 30.3986 37.7067 30.3634 37.6455C30.3558 37.6961 30.2941 37.7167 30.2576 37.6809L27.4792 34.9512C27.4405 34.9131 27.4402 34.8507 27.4786 34.8123L7.51934 14.8019C7.42326 14.7055 7.36931 14.575 7.36931 14.439V7.70751C7.36931 7.42373 7.59936 7.19368 7.88314 7.19368H10.5625C10.8463 7.19368 11.0763 7.42373 11.0763 7.70751V12.3765C11.0763 12.5125 11.1303 12.643 11.2264 12.7394L30.3634 31.9275L49.5515 12.7394Z" fill="url(#paint11_radial_39_2348)"/>
</mask>
<g mask="url(#mask0_39_2348)">
<g opacity="0.6" filter="url(#filter0_f_39_2348)">
<path d="M52.581 20.0002C52.5664 18.6035 51.7083 17.4497 50.5981 17.3221C41.3717 16.2411 33.8422 10.065 31.36 7.80594C30.8412 7.33226 30.1382 7.33226 29.6194 7.80594C27.1419 10.065 19.6125 16.2411 10.3862 17.3221C9.2759 17.4497 8.4226 18.6035 8.4032 20.0002C8.29169 29.1156 9.46014 60.0626 29.9346 66.9493C30.3816 67.0986 30.576 67.1268 31.0166 66.9594C31.0264 66.9557 31.0359 66.9523 31.0448 66.9493C51.5192 60.0688 52.6876 29.1155 52.581 20.0002Z" fill="url(#paint12_linear_39_2348)"/>
</g>
<g filter="url(#filter1_f_39_2348)">
<path d="M52.581 20.0002C52.5664 18.6035 51.7083 17.4497 50.5981 17.3221C41.3717 16.2411 33.8422 10.065 31.36 7.80594C30.8412 7.33226 30.1382 7.33226 29.6194 7.80594C27.1419 10.065 19.6125 16.2411 10.3862 17.3221C9.2759 17.4497 8.4226 18.6035 8.4032 20.0002C8.29169 29.1156 9.46014 60.0626 29.9346 66.9493C30.3816 67.0986 30.576 67.1268 31.0166 66.9594C31.0264 66.9557 31.0359 66.9523 31.0448 66.9493C51.5192 60.0688 52.6876 29.1155 52.581 20.0002Z" fill="url(#paint13_linear_39_2348)"/>
</g>
</g>
<path d="M52.581 20.0002C52.5664 18.6035 51.7083 17.4497 50.5981 17.3221C41.3717 16.2411 33.8422 10.065 31.36 7.80594C30.8412 7.33226 30.1382 7.33226 29.6194 7.80594C27.1419 10.065 19.6125 16.2411 10.3862 17.3221C9.2759 17.4497 8.4226 18.6035 8.4032 20.0002C8.29169 29.1156 9.46014 60.0626 29.9346 66.9493C30.3816 67.0986 30.576 67.1268 31.0166 66.9594C31.0264 66.9557 31.0359 66.9523 31.0448 66.9493C51.5192 60.0688 52.6876 29.1155 52.581 20.0002Z" fill="url(#paint14_linear_39_2348)"/>
<path d="M31.36 7.80594C33.8422 10.065 41.3717 16.2411 50.5981 17.3221C51.7083 17.4497 52.5664 18.6035 52.581 20.0002C52.6876 29.1155 51.5192 60.0688 31.0448 66.9493L31.36 7.80594ZM31.36 7.80594C30.8412 7.33226 30.1382 7.33226 29.6194 7.80594M31.36 7.80594H29.6194M29.6194 7.80594L29.6194 7.80596L29.6194 7.80594ZM52.081 20.0055L52.081 20.0061C52.1341 24.5447 51.8686 34.5047 49.0508 44.1729C46.2292 53.8542 40.8896 63.113 30.8864 66.4751C30.8707 66.4803 30.8549 66.486 30.8392 66.4919L30.839 66.492C30.6497 66.5639 30.5606 66.5754 30.493 66.5733C30.4139 66.571 30.3152 66.5492 30.094 66.4754C20.0901 63.1105 14.7503 53.8513 11.9292 44.1706C9.11208 34.5035 8.84766 24.5454 8.90316 20.0068C8.92049 18.77 9.66429 17.9083 10.4432 17.8188L10.4443 17.8187C19.8344 16.7185 27.4628 10.4491 29.9563 8.17541L29.9566 8.17518C30.2844 7.87585 30.695 7.87585 31.0228 8.17518L31.0234 8.17573C33.5214 10.4491 41.1499 16.7185 50.5399 17.8187L50.541 17.8188C51.3212 17.9085 52.0681 18.7715 52.081 20.0055Z" stroke="white" stroke-opacity="0.25"/>
<mask id="mask1_39_2348" style="mask-type:alpha" maskUnits="userSpaceOnUse" x="8" y="7" width="45" height="61">
<path d="M52.581 20.0002C52.5664 18.6035 51.7083 17.4497 50.5981 17.3221C41.3717 16.2411 33.8422 10.065 31.36 7.80594C30.8412 7.33226 30.1382 7.33226 29.6194 7.80594C27.1419 10.065 19.6125 16.2411 10.3862 17.3221C9.2759 17.4497 8.4226 18.6035 8.4032 20.0002C8.29169 29.1156 9.46014 60.0626 29.9346 66.9493C30.3816 67.0986 30.576 67.1268 31.0166 66.9594C31.0264 66.9557 31.0359 66.9523 31.0448 66.9493C51.5192 60.0688 52.6876 29.1155 52.581 20.0002Z" fill="url(#paint15_linear_39_2348)"/>
<path d="M31.36 7.80594C33.8422 10.065 41.3717 16.2411 50.5981 17.3221C51.7083 17.4497 52.5664 18.6035 52.581 20.0002C52.6876 29.1155 51.5192 60.0688 31.0448 66.9493L31.36 7.80594ZM31.36 7.80594C30.8412 7.33226 30.1382 7.33226 29.6194 7.80594M31.36 7.80594H29.6194M29.6194 7.80594L29.6194 7.80596L29.6194 7.80594ZM52.081 20.0055L52.081 20.0061C52.1341 24.5447 51.8686 34.5047 49.0508 44.1729C46.2292 53.8542 40.8896 63.113 30.8864 66.4751C30.8707 66.4803 30.8549 66.486 30.8392 66.4919L30.839 66.492C30.6497 66.5639 30.5606 66.5754 30.493 66.5733C30.4139 66.571 30.3152 66.5492 30.094 66.4754C20.0901 63.1105 14.7503 53.8513 11.9292 44.1706C9.11208 34.5035 8.84766 24.5454 8.90316 20.0068C8.92049 18.77 9.66429 17.9083 10.4432 17.8188L10.4443 17.8187C19.8344 16.7185 27.4628 10.4491 29.9563 8.17541L29.9566 8.17518C30.2844 7.87585 30.695 7.87585 31.0228 8.17518L31.0234 8.17573C33.5214 10.4491 41.1499 16.7185 50.5399 17.8187L50.541 17.8188C51.3212 17.9085 52.0681 18.7715 52.081 20.0055Z" stroke="white" stroke-opacity="0.25"/>
</mask>
<g mask="url(#mask1_39_2348)">
<g opacity="0.5">
<path d="M49.1162 56.4499C49.4912 56.825 49.7019 57.3337 49.7019 57.8641V60.6032C49.7019 61.6126 50.5203 62.431 51.5297 62.431C52.5391 62.431 53.3575 61.6126 53.3575 60.6032V55.8001C53.3575 55.2706 53.1475 54.7626 52.7735 54.3877L33.2482 34.8124L55.5401 12.5204C56.3211 11.7394 56.3211 10.473 55.5401 9.692L55.4853 9.63718C54.7036 8.85554 53.4361 8.85622 52.6553 9.63872L30.3634 31.9791L8.1105 9.62929C7.33482 8.85024 6.07578 8.8433 5.29157 9.61375L5.21182 9.69211C4.41895 10.4711 4.4133 11.7471 5.19924 12.533L27.4786 34.8124L7.95328 54.3877C7.57931 54.7626 7.3693 55.2706 7.3693 55.8001V60.5774C7.3693 61.6011 8.19915 62.431 9.22282 62.431C10.2465 62.431 11.0763 61.6011 11.0763 60.5774V57.8626C11.0763 57.333 11.2863 56.8251 11.6602 56.4502L30.3634 37.6971L49.1162 56.4499Z" fill="url(#paint16_radial_39_2348)"/>
<path d="M49.1162 56.4499C49.4912 56.825 49.7019 57.3337 49.7019 57.8641V60.6032C49.7019 61.6126 50.5203 62.431 51.5297 62.431C52.5391 62.431 53.3575 61.6126 53.3575 60.6032V55.8001C53.3575 55.2706 53.1475 54.7626 52.7735 54.3877L33.2482 34.8124L55.5401 12.5204C56.3211 11.7394 56.3211 10.473 55.5401 9.692L55.4853 9.63718C54.7036 8.85554 53.4361 8.85622 52.6553 9.63872L30.3634 31.9791L8.1105 9.62929C7.33482 8.85024 6.07578 8.8433 5.29157 9.61375L5.21182 9.69211C4.41895 10.4711 4.4133 11.7471 5.19924 12.533L27.4786 34.8124L7.95328 54.3877C7.57931 54.7626 7.3693 55.2706 7.3693 55.8001V60.5774C7.3693 61.6011 8.19915 62.431 9.22282 62.431C10.2465 62.431 11.0763 61.6011 11.0763 60.5774V57.8626C11.0763 57.333 11.2863 56.8251 11.6602 56.4502L30.3634 37.6971L49.1162 56.4499Z" fill="#101426"/>
</g>
</g>
<path opacity="0.7" d="M8.40283 20.0002C8.41738 18.6035 9.27553 17.4497 10.3857 17.3221C19.6121 16.2411 27.1415 10.065 29.6238 7.80594C30.5601 6.95103 31.6372 8.40535 32.0727 9.59609C38.5493 27.3056 26.6214 38.0837 26.3812 50.8697C26.2229 59.2997 29.714 65.0259 30.7584 66.5458C30.8966 66.7469 30.8585 67.1546 30.7237 67.3579C30.6162 67.5201 30.4928 67.3978 30.372 67.2453C30.2472 67.0879 30.0544 66.9878 29.939 66.9493C9.46455 60.0688 8.29617 29.1155 8.40283 20.0002Z" fill="url(#paint17_linear_39_2348)"/>
<defs>
<filter id="filter0_f_39_2348" x="-5.60303" y="-6.54932" width="72.1899" height="87.6228" filterUnits="userSpaceOnUse" color-interpolation-filters="sRGB">
<feFlood flood-opacity="0" result="BackgroundImageFix"/>
<feBlend mode="normal" in="SourceGraphic" in2="BackgroundImageFix" result="shape"/>
<feGaussianBlur stdDeviation="7" result="effect1_foregroundBlur_39_2348"/>
</filter>
<filter id="filter1_f_39_2348" x="-5.60303" y="-6.54932" width="72.1899" height="87.6228" filterUnits="userSpaceOnUse" color-interpolation-filters="sRGB">
<feFlood flood-opacity="0" result="BackgroundImageFix"/>
<feBlend mode="normal" in="SourceGraphic" in2="BackgroundImageFix" result="shape"/>
<feGaussianBlur stdDeviation="7" result="effect1_foregroundBlur_39_2348"/>
</filter>
<linearGradient id="paint0_linear_39_2348" x1="169.227" y1="61.6603" x2="138.654" y2="-14.6441" gradientUnits="userSpaceOnUse">
<stop stop-color="white"/>
<stop offset="1" stop-color="white" stop-opacity="0"/>
</linearGradient>
<radialGradient id="paint1_radial_39_2348" cx="0" cy="0" r="1" gradientUnits="userSpaceOnUse" gradientTransform="translate(30.5065 33.5202) rotate(-90) scale(18.3744 9.36273)">
<stop stop-color="#B41C2E"/>
<stop offset="1" stop-color="#111426"/>
</radialGradient>
<radialGradient id="paint2_radial_39_2348" cx="0" cy="0" r="1" gradientUnits="userSpaceOnUse" gradientTransform="translate(30.5065 33.5202) rotate(-90) scale(18.3744 9.36273)">
<stop stop-color="#B41C2E"/>
<stop offset="1" stop-color="#111426"/>
</radialGradient>
<radialGradient id="paint3_radial_39_2348" cx="0" cy="0" r="1" gradientUnits="userSpaceOnUse" gradientTransform="translate(30.5065 33.5202) rotate(-90) scale(18.3744 9.36273)">
<stop stop-color="#B41C2E"/>
<stop offset="1" stop-color="#111426"/>
</radialGradient>
<radialGradient id="paint4_radial_39_2348" cx="0" cy="0" r="1" gradientUnits="userSpaceOnUse" gradientTransform="translate(30.5065 33.5202) rotate(-90) scale(18.3744 9.36273)">
<stop stop-color="#B41C2E"/>
<stop offset="1" stop-color="#111426"/>
</radialGradient>
<radialGradient id="paint5_radial_39_2348" cx="0" cy="0" r="1" gradientUnits="userSpaceOnUse" gradientTransform="translate(30.5065 33.5202) rotate(-90) scale(18.3744 9.36273)">
<stop stop-color="#B41C2E"/>
<stop offset="1" stop-color="#111426"/>
</radialGradient>
<radialGradient id="paint6_radial_39_2348" cx="0" cy="0" r="1" gradientUnits="userSpaceOnUse" gradientTransform="translate(30.5065 33.5202) rotate(-90) scale(18.3744 9.36273)">
<stop stop-color="#B41C2E"/>
<stop offset="1" stop-color="#111426"/>
</radialGradient>
<radialGradient id="paint7_radial_39_2348" cx="0" cy="0" r="1" gradientUnits="userSpaceOnUse" gradientTransform="translate(30.5065 33.5202) rotate(-90) scale(18.3744 9.36273)">
<stop stop-color="#B41C2E"/>
<stop offset="1" stop-color="#111426"/>
</radialGradient>
<radialGradient id="paint8_radial_39_2348" cx="0" cy="0" r="1" gradientUnits="userSpaceOnUse" gradientTransform="translate(30.5065 33.5202) rotate(-90) scale(18.3744 9.36273)">
<stop stop-color="#B41C2E"/>
<stop offset="1" stop-color="#111426"/>
</radialGradient>
<radialGradient id="paint9_radial_39_2348" cx="0" cy="0" r="1" gradientUnits="userSpaceOnUse" gradientTransform="translate(30.5065 33.5202) rotate(-90) scale(18.3744 9.36273)">
<stop stop-color="#B41C2E"/>
<stop offset="1" stop-color="#111426"/>
</radialGradient>
<radialGradient id="paint10_radial_39_2348" cx="0" cy="0" r="1" gradientUnits="userSpaceOnUse" gradientTransform="translate(30.5065 33.5202) rotate(-90) scale(18.3744 9.36273)">
<stop stop-color="#B41C2E"/>
<stop offset="1" stop-color="#111426"/>
</radialGradient>
<radialGradient id="paint11_radial_39_2348" cx="0" cy="0" r="1" gradientUnits="userSpaceOnUse" gradientTransform="translate(30.5065 33.5202) rotate(-90) scale(18.3744 9.36273)">
<stop stop-color="#B41C2E"/>
<stop offset="1" stop-color="#111426"/>
</radialGradient>
<linearGradient id="paint12_linear_39_2348" x1="52.5867" y1="7.45069" x2="5.81539" y2="53.4504" gradientUnits="userSpaceOnUse">
<stop stop-color="#FE823C"/>
<stop offset="1" stop-color="#DB205A"/>
</linearGradient>
<linearGradient id="paint13_linear_39_2348" x1="52.5867" y1="7.45069" x2="5.81539" y2="53.4504" gradientUnits="userSpaceOnUse">
<stop stop-color="#FE823C"/>
<stop offset="1" stop-color="#DB205A"/>
</linearGradient>
<linearGradient id="paint14_linear_39_2348" x1="52.5867" y1="7.45069" x2="5.81539" y2="53.4504" gradientUnits="userSpaceOnUse">
<stop stop-color="#FE823C"/>
<stop offset="1" stop-color="#FF2065"/>
</linearGradient>
<linearGradient id="paint15_linear_39_2348" x1="52.5867" y1="7.45069" x2="5.81539" y2="53.4504" gradientUnits="userSpaceOnUse">
<stop stop-color="#FE823C"/>
<stop offset="1" stop-color="#FF2065"/>
</linearGradient>
<radialGradient id="paint16_radial_39_2348" cx="0" cy="0" r="1" gradientUnits="userSpaceOnUse" gradientTransform="translate(30.5065 36.1045) rotate(90) scale(18.3744 9.36273)">
<stop stop-color="#B41C2E"/>
<stop offset="1" stop-color="#111426"/>
</radialGradient>
<linearGradient id="paint17_linear_39_2348" x1="21.1971" y1="7.45068" x2="21.1971" y2="67.5693" gradientUnits="userSpaceOnUse">
<stop stop-color="#FE993C"/>
<stop offset="0.0001" stop-color="#FFF0A4"/>
<stop offset="1" stop-color="#FE993C" stop-opacity="0"/>
</linearGradient>
</defs>
</svg>
