<svg width="35" height="35" viewBox="0 0 35 35" fill="none" xmlns="http://www.w3.org/2000/svg">
<rect width="35" height="35" rx="7" fill="#CBD1DC"/>
<g clip-path="url(#clip0_31_1965)">
<path d="M17.4999 8C14.8803 8 12.75 10.1303 12.75 12.7499C12.75 15.3695 14.8803 17.4999 17.4999 17.4999C20.1195 17.4999 22.2499 15.3695 22.2499 12.7499C22.2499 10.1303 20.1195 8 17.4999 8ZM17.4999 15.1249C16.1901 15.1249 15.125 14.0597 15.125 12.7499C15.125 11.4401 16.1901 10.375 17.4999 10.375C18.8097 10.375 19.8749 11.4401 19.8749 12.7499C19.8749 14.0597 18.8097 15.1249 17.4999 15.1249Z" fill="white"/>
<path d="M23.7974 17.3681C23.3331 16.9038 22.5826 16.9038 22.1183 17.3681C19.5723 19.914 15.428 19.914 12.8808 17.3681C12.4165 16.9038 11.666 16.9038 11.2017 17.3681C10.7374 17.8324 10.7374 18.5829 11.2017 19.0484C12.679 20.5256 14.5516 21.3675 16.4825 21.5872L13.097 24.9727C12.6327 25.437 12.6327 26.1875 13.097 26.6518C13.5613 27.1161 14.3118 27.1161 14.7761 26.6518L17.499 23.9289L20.2219 26.6518C20.4534 26.8834 20.7574 26.9998 21.0614 26.9998C21.3654 26.9998 21.6694 26.8834 21.901 26.6518C22.3653 26.1875 22.3653 25.437 21.901 24.9727L18.5154 21.5872C20.4463 21.3675 22.3189 20.5256 23.7962 19.0484C24.2605 18.5841 24.2605 17.8324 23.7974 17.3681Z" fill="white"/>
</g>
<defs>
<clipPath id="clip0_31_1965">
<rect width="19" height="19" fill="white" transform="translate(8 8)"/>
</clipPath>
</defs>
</svg>
