<svg width="20" height="20" viewBox="0 0 20 20" fill="none" xmlns="http://www.w3.org/2000/svg">
<g clip-path="url(#clip0_38_2357)">
<path d="M16.6654 18.3333H3.33203V16.6666C3.33203 15.5615 3.77102 14.5017 4.55242 13.7203C5.33382 12.9389 6.39363 12.4999 7.4987 12.4999H12.4987C13.6038 12.4999 14.6636 12.9389 15.445 13.7203C16.2264 14.5017 16.6654 15.5615 16.6654 16.6666V18.3333ZM9.9987 10.8333C9.34209 10.8333 8.69191 10.7039 8.08528 10.4526C7.47865 10.2014 6.92746 9.83308 6.46316 9.36879C5.99887 8.90449 5.63057 8.3533 5.3793 7.74667C5.12803 7.14004 4.9987 6.48986 4.9987 5.83325C4.9987 5.17664 5.12803 4.52646 5.3793 3.91983C5.63057 3.31321 5.99887 2.76201 6.46316 2.29772C6.92746 1.83343 7.47865 1.46513 8.08528 1.21385C8.69191 0.962581 9.34209 0.833252 9.9987 0.833252C11.3248 0.833252 12.5965 1.36004 13.5342 2.29772C14.4719 3.2354 14.9987 4.50717 14.9987 5.83325C14.9987 7.15933 14.4719 8.4311 13.5342 9.36879C12.5965 10.3065 11.3248 10.8333 9.9987 10.8333Z" fill="#3965FF"/>
</g>
<defs>
<clipPath id="clip0_38_2357">
<rect width="20" height="20" fill="white"/>
</clipPath>
</defs>
</svg>
