<svg width="42" height="42" viewBox="0 0 42 42" fill="none" xmlns="http://www.w3.org/2000/svg">
<path d="M32.03 26.4171V30.7509C32.0301 31.0612 31.9126 31.36 31.701 31.587C31.4895 31.8141 31.1997 31.9524 30.8902 31.9741C30.3546 32.0109 29.917 32.0305 29.5787 32.0305C18.7479 32.0305 9.96875 23.2513 9.96875 12.4205C9.96875 12.0822 9.98713 11.6447 10.0251 11.1091C10.0468 10.7995 10.1852 10.5098 10.4122 10.2982C10.6392 10.0867 10.938 9.9691 11.2483 9.96924H15.5821C15.7341 9.96908 15.8808 10.0254 15.9936 10.1274C16.1064 10.2293 16.1773 10.3695 16.1925 10.5208C16.2207 10.8027 16.2464 11.027 16.2709 11.1973C16.5145 12.8972 17.0136 14.5504 17.7515 16.101C17.8679 16.3462 17.7919 16.6391 17.5713 16.796L14.9264 18.6859C16.5436 22.454 19.5464 25.4569 23.3146 27.0741L25.202 24.4341C25.2792 24.3262 25.3917 24.2488 25.5201 24.2155C25.6484 24.1821 25.7844 24.1948 25.9043 24.2514C27.4548 24.9879 29.1076 25.4858 30.8068 25.7283C30.9772 25.7528 31.2015 25.7798 31.4809 25.8068C31.6319 25.8222 31.7719 25.8932 31.8735 26.006C31.9752 26.1188 32.0314 26.2653 32.0312 26.4171H32.03Z" fill="url(#paint0_linear_33_1050)"/>
<defs>
<linearGradient id="paint0_linear_33_1050" x1="32.0312" y1="9.96924" x2="9.96997" y2="32.0317" gradientUnits="userSpaceOnUse">
<stop stop-color="#40C6FF"/>
<stop offset="0.505208" stop-color="#4086F1"/>
<stop offset="1" stop-color="#8458FF"/>
</linearGradient>
</defs>
</svg>
