<svg width="35" height="35" viewBox="0 0 35 35" fill="none" xmlns="http://www.w3.org/2000/svg">
<rect width="35" height="35" rx="7" fill="#CBD1DC"/>
<g clip-path="url(#clip0_31_1974)">
<path d="M27 11.6088C26.2934 11.9188 25.5406 12.1242 24.7556 12.2239C25.5631 11.7418 26.1794 10.9842 26.4692 10.071C25.7163 10.5199 24.8851 10.8369 23.9992 11.0139C23.2843 10.2527 22.2654 9.78125 21.1539 9.78125C18.9974 9.78125 17.2613 11.5316 17.2613 13.6774C17.2613 13.9862 17.2874 14.2831 17.3516 14.5657C14.1132 14.4077 11.2478 12.8557 9.32287 10.4914C8.98681 11.0744 8.78969 11.7418 8.78969 12.4603C8.78969 13.8092 9.48438 15.0051 10.5199 15.6974C9.89406 15.6855 9.28013 15.5038 8.76 15.2176C8.76 15.2295 8.76 15.2449 8.76 15.2604C8.76 17.1532 10.1102 18.7255 11.8807 19.0877C11.5637 19.1744 11.2181 19.2159 10.8595 19.2159C10.6101 19.2159 10.3584 19.2017 10.1221 19.1494C10.6267 20.692 12.0589 21.8261 13.7618 21.8629C12.4365 22.8996 10.7538 23.5242 8.93219 23.5242C8.61275 23.5242 8.30637 23.5099 8 23.4707C9.72544 24.5834 11.7703 25.2188 13.9755 25.2188C21.1432 25.2188 25.062 19.2812 25.062 14.1346C25.062 13.9624 25.0561 13.7962 25.0478 13.6311C25.8208 13.0825 26.4704 12.3973 27 11.6088Z" fill="white"/>
</g>
<defs>
<clipPath id="clip0_31_1974">
<rect width="19" height="19" fill="white" transform="translate(8 8)"/>
</clipPath>
</defs>
</svg>
