<svg width="35" height="35" viewBox="0 0 35 35" fill="none" xmlns="http://www.w3.org/2000/svg">
<rect width="35" height="35" rx="7" fill="#CBD1DC"/>
<g clip-path="url(#clip0_31_1961)">
<path fill-rule="evenodd" clip-rule="evenodd" d="M10.7913 12H8.71268C8.11879 12 8 12.2726 8 12.573C8 13.1098 8.7047 15.7717 11.2812 19.2924C12.9988 21.6967 15.4188 23 17.621 23C18.9423 23 19.1057 22.7105 19.1057 22.2119V20.3947C19.1057 19.8158 19.2309 19.7002 19.6493 19.7002C19.9576 19.7002 20.4861 19.8505 21.7193 21.0098C23.1287 22.3837 23.361 23 24.1537 23H26.2323C26.8263 23 27.1232 22.7105 26.9519 22.1393C26.7644 21.5699 26.0916 20.7438 25.1987 19.7647C24.7142 19.2065 23.9875 18.6054 23.7673 18.3049C23.459 17.9185 23.547 17.7467 23.7673 17.4033C23.7673 17.4033 26.2997 13.9255 26.564 12.7449C26.6961 12.3155 26.564 12 25.9354 12H23.8568C23.3283 12 23.0846 12.2726 22.9525 12.573C22.9525 12.573 21.8955 15.0847 20.398 16.7163C19.9135 17.1885 19.6933 17.3388 19.429 17.3388C19.2969 17.3388 19.1057 17.1885 19.1057 16.7592V12.7449C19.1057 12.2296 18.9523 12 18.5118 12H15.2454C14.9152 12 14.7165 12.2391 14.7165 12.4658C14.7165 12.9542 15.4652 13.0668 15.5424 14.4407V17.4247C15.5424 18.0789 15.4212 18.1976 15.1569 18.1976C14.4523 18.1976 12.7382 15.6746 11.7216 12.7878C11.5224 12.2267 11.3225 12 10.7913 12Z" fill="white"/>
</g>
<defs>
<clipPath id="clip0_31_1961">
<rect width="19" height="19" fill="white" transform="translate(8 8)"/>
</clipPath>
</defs>
</svg>
