<svg width="35" height="35" viewBox="0 0 35 35" fill="none" xmlns="http://www.w3.org/2000/svg">
<rect width="35" height="35" rx="7" fill="#43d854"/>
<g clip-path="url(#clip0_31_1946)">
<path d="M17.0387 8.01108C12.0208 8.25 8.06099 12.4289 8.07622 17.4525C8.08085 18.9825 8.45023 20.4267 9.10184 21.7027L8.10139 26.559C8.04727 26.8217 8.28419 27.0517 8.54515 26.9899L13.3038 25.8625C14.5263 26.4715 15.8995 26.8233 17.3528 26.8454C22.4816 26.9238 26.758 22.8514 26.9179 17.7246C27.0893 12.2289 22.5535 7.74844 17.0387 8.01108ZM22.7167 22.6407C21.3231 24.0343 19.4702 24.8017 17.4994 24.8017C16.3454 24.8017 15.2406 24.5428 14.2155 24.0322L13.5528 23.7021L10.6353 24.3933L11.2494 21.4122L10.9229 20.7728C10.3908 19.7307 10.121 18.6037 10.121 17.4233C10.121 15.4524 10.8884 13.5996 12.282 12.206C13.6632 10.8248 15.5463 10.0448 17.4995 10.0448C19.4704 10.0449 21.3232 10.8124 22.7168 12.2059C24.1104 13.5995 24.8778 15.4524 24.8779 17.4232C24.8778 19.3765 24.0979 21.2596 22.7167 22.6407Z" fill="white"/>
<path d="M22.0731 19.4668L20.2478 18.9427C20.0079 18.8738 19.7495 18.9419 19.5746 19.12L19.1282 19.5748C18.94 19.7666 18.6544 19.8282 18.4053 19.7274C17.5419 19.378 15.7256 17.763 15.2617 16.9552C15.1279 16.7222 15.15 16.4309 15.3143 16.2183L15.704 15.7141C15.8567 15.5166 15.8889 15.2513 15.788 15.023L15.02 13.2861C14.8361 12.8701 14.3045 12.749 13.9572 13.0428C13.4478 13.4736 12.8433 14.1284 12.7698 14.8537C12.6403 16.1326 13.1887 17.7447 15.2628 19.6805C17.6588 21.9168 19.5776 22.2122 20.8268 21.9096C21.5354 21.738 22.1017 21.0499 22.4591 20.4866C22.7027 20.1025 22.5103 19.5923 22.0731 19.4668Z" fill="white"/>
</g>
<defs>
<clipPath id="clip0_31_1946">
<rect width="19" height="19" fill="white" transform="translate(8 8)"/>
</clipPath>
</defs>
</svg>
